<svg xmlns="http://www.w3.org/2000/svg" version="1.1" xmlns:xlink="http://www.w3.org/1999/xlink" xmlns:svgjs="http://svgjs.dev/svgjs" viewBox="0 0 22.596949392041683 7.431959144045291"><g transform="matrix(0.7481058687239437,0,0,0.7481058687239437,7.587829155718943,2.8369286930320303)"><rect width="25.099358436715598" height="25.099358436715598" x="-7.589625173291681" y="-11.374643817967174" fill="#ffffff"></rect><g clip-path="url(#SvgjsClipPath49278)"><g clip-path="url(#SvgjsClipPath492735458fc81-52d0-42a6-b6e8-88413496eb06)"><path d=" M -2.6249523117896283 0.017357053059905203 C -2.264007524157244 0.01735705305990698 -1.971403960612145 -0.27524651048519266 -1.971403960612145 -0.6361912981175758 C -1.971403960612145 -0.9971360857499605 -2.264007524157244 -1.2897396492950601 -2.6249523117896283 -1.2897396492950601 C -2.985897099422013 -1.2897396492950601 -3.278500662967112 -0.9971360857499605 -3.2785006629671125 -0.6361912981175758 C -3.2778097449509778 -0.27553308577143487 -2.985610524135705 0.016666135043808206 -2.6249523117895945 0.017357053059905203 Z" fill="#2c7b5b" transform="matrix(1,0,0,1,0,0)" fill-rule="evenodd"></path></g><g clip-path="url(#SvgjsClipPath492735458fc81-52d0-42a6-b6e8-88413496eb06)"><path d=" M -4.094023533456595 0.6552101988776979 C -4.33892104003239 0.6554641104421881 -4.559833799404982 0.508103272409834 -4.653669347442651 0.28189597119567456 C -4.747504895480322 0.05568866998151534 -4.695765854686197 -0.2047738714652627 -4.522597074015252 -0.3779426521362088 C -4.349428293344307 -0.5511114328071534 -4.088965751897529 -0.6028504736012791 -3.8627584506833683 -0.50901492556361 C -3.6365511494692075 -0.41517937752593936 -3.489190311436854 -0.1942666181533479 -3.4894442230013434 0.05063088842244534 C -3.4894442206120253 0.21097528196206672 -3.5531407842204366 0.36475239618327304 -3.6665213968983217 0.4781330122401626 C -3.7799020095762073 0.5915136282970554 -3.9336791218991083 0.6552101964883807 -4.094023524447662 0.6552101988776979 Z" fill="#2c7b5b" transform="matrix(1,0,0,1,0,0)" fill-rule="evenodd"></path></g><g clip-path="url(#SvgjsClipPath492735458fc81-52d0-42a6-b6e8-88413496eb06)"><path d=" M -4.531605858884747 2.0081369008829606 C -4.8384609377076675 2.0081369008829606 -5.087216128617767 1.7593817099728613 -5.087216128617767 1.452526631149941 C -5.087216128617768 1.1456715523270211 -4.838460937707668 0.8969163614169218 -4.531605858884749 0.8969163614169218 C -4.224750780061829 0.8969163614169218 -3.9759955891517285 1.1456715523270211 -3.975995589151728 1.4525266311499379 C -3.975995589151728 1.5998836366073355 -4.034532931645376 1.741205282760781 -4.138730069459643 1.845402420575045 C -4.242927207273909 1.9495995583893122 -4.384248853427355 2.0081369008829606 -4.531605858884748 2.0081369008829606 Z" fill="#2c7b5b" transform="matrix(1,0,0,1,0,0)" fill-rule="evenodd"></path></g><g clip-path="url(#SvgjsClipPath492735458fc81-52d0-42a6-b6e8-88413496eb06)"><path d=" M -3.948999835933061 3.1676986728568424 C -4.1539170847319555 3.1676986728568424 -4.3386568616213195 3.0442595003653943 -4.417075297742492 2.854940648341572 C -4.495493733863663 2.665621796317752 -4.452147660803064 2.44770637139163 -4.307249284595276 2.3028079951838434 C -4.162350908387486 2.1579096189760536 -3.9444354834613664 2.114563545915455 -3.755116631437545 2.1929819820366276 C -3.5657977794137246 2.271400418157797 -3.442358606922274 2.456140195047165 -3.4423586069222742 2.661057443846056 C -3.4427045155676392 2.940724262900393 -3.6693330168786154 3.1673527642114148 -3.9489998359330056 3.1676986728568424 Z" fill="#589f43" transform="matrix(1,0,0,1,0,0)" fill-rule="evenodd"></path></g><g clip-path="url(#SvgjsClipPath492735458fc81-52d0-42a6-b6e8-88413496eb06)"><path d=" M -2.8302455978943715 3.639810450076315 C -3.0153567185565686 3.639810450076315 -3.182240606229861 3.528302201320096 -3.253079565253819 3.3572818257000647 C -3.323918524277777 3.1862614500800333 -3.2847620344869757 2.9894084825817155 -3.1538687057936947 2.8585151538884346 C -3.0229753771004133 2.7276218251951536 -2.8261224096020965 2.6884653354043535 -2.6551020339820646 2.7593042944283126 C -2.4840816583620327 2.830143253452271 -2.372573409605816 2.9970271411255633 -2.3725734096058164 3.182138261787759 C -2.3725734096058164 3.4349036318012147 -2.5774802278809146 3.639810450076315 -2.8302455978943706 3.639810450076315 Z" fill="#589f43" transform="matrix(1,0,0,1,0,0)" fill-rule="evenodd"></path></g><g clip-path="url(#SvgjsClipPath492735458fc81-52d0-42a6-b6e8-88413496eb06)"><path d=" M -1.7102357434269062 3.3692251096752606 C -1.9358652776370464 3.3674878942462816 -2.1173997478087223 3.183233667526887 -2.115781700414293 2.957603247264099 C -2.1141636530198635 2.7319728270013157 -1.930005330679827 2.5503410670104567 -1.7043740873039388 2.5518399459189793 C -1.4787428439280506 2.5533388248275055 -1.297013844784137 2.7374011914172693 -1.2983935547886456 2.96303319496649 C -1.2988899581770195 3.071590498019957 -1.3426209251775236 3.1754757980620822 -1.4199116976492556 3.2517061788383175 C -1.4972024701209885 3.327936559614557 -1.6016819409759586 3.370228322518303 -1.710235743426903 3.3692251096752606 Z" fill="#589f43" transform="matrix(1,0,0,1,0,0)" fill-rule="evenodd"></path></g><g clip-path="url(#SvgjsClipPath492735458fc81-52d0-42a6-b6e8-88413496eb06)"><path d=" M -0.5939927382457659 2.2134301869877033 C -0.5939927382457659 2.41210586623927 -0.7550511658382906 2.573164293831794 -0.9537268450898573 2.573164293831794 C -1.152402524341424 2.573164293831794 -1.3134609519339482 2.41210586623927 -1.3134609519339482 2.2134301869877033 C -1.3134609519339482 2.0147545077361357 -1.152402524341424 1.8536960801436124 -0.9537268450898573 1.8536960801436124 C -0.7550511658382906 1.8536960801436124 -0.5939927382457659 2.0147545077361357 -0.5939927382457659 2.2134301869877033 Z" fill="#8cc63e" transform="matrix(1,0,0,1,0,0)" fill-rule="nonzero"></path></g><g clip-path="url(#SvgjsClipPath492735458fc81-52d0-42a6-b6e8-88413496eb06)"><path d=" M -0.7107650661218585 1.5605096440246071 C -0.8815662123742287 1.558775487719135 -1.018951356143476 1.4195178637674757 -1.018373295214242 1.2487088923848888 C -1.0177952342850078 1.077899921002302 -0.8794706819503677 0.9395753686676613 -0.7086617105677799 0.938997307738429 C -0.537852739185193 0.9384192468091936 -0.39859511523353675 1.0758043905784405 -0.3968609589280625 1.2466055368308115 C -0.396013080101711 1.3301151230005135 -0.42881268490272006 1.4104514416759586 -0.48786592308971244 1.4695046798629519 C -0.5469191612767057 1.5285579180499482 -0.6272554799521499 1.5613575228509569 -0.7107650661218559 1.5605096440246071 Z" fill="#8cc63e" transform="matrix(1,0,0,1,0,0)" fill-rule="evenodd"></path></g><g clip-path="url(#SvgjsClipPath492735458fc81-52d0-42a6-b6e8-88413496eb06)"><path d=" M -0.9505878040179203 0.6106358156561789 C -1.0565311731986151 0.6108898772236373 -1.1521840140821773 0.5472666562088835 -1.1929029493324323 0.4494605708525865 C -1.2336218845826878 0.3516544854962962 -1.2113789578121104 0.23894852988583293 -1.1365554537134201 0.1639451615945986 C -1.0617319496147308 0.08894179330336582 -0.9490797231658252 0.06642832849910252 -0.8511761553066028 0.10691231818727132 C -0.7532725874473805 0.14739630787544367 -0.6894198914632952 0.24289611644568376 -0.6894195868326811 0.34883979025655276 C -0.6894191717909823 0.4931809227206314 -0.8062470865812177 0.610289673849314 -0.9505878040125362 0.6106358156561689 Z" fill="#8cc63e" transform="matrix(1,0,0,1,0,0)" fill-rule="evenodd"></path></g><g clip-path="url(#SvgjsClipPath492735458fc81-52d0-42a6-b6e8-88413496eb06)"><path d=" M -1.5432387583998066 -0.08874253517159758 C -1.6293762889345174 -0.08874290994086276 -1.7070201531881768 -0.1406647312926681 -1.7399246023921373 -0.22026982779623738 C -1.7728290515960978 -0.29987492429980656 -1.7545051145479342 -0.39146465363549554 -1.6935067809940922 -0.45228305110215694 C -1.6325084474402507 -0.5131014485688201 -1.5408649851363863 -0.5311547309764535 -1.4613574424355686 -0.498015255717537 C -1.3818498997347506 -0.4648757804586223 -1.3301576807127988 -0.3870788674008654 -1.3304117737224126 -0.3009417116346047 C -1.330411526935836 -0.2445540471141754 -1.3528543211815047 -0.19048499560654797 -1.3927852728511843 -0.1506718343548794 C -1.432716224520863 -0.11085867310321063 -1.4868513406660497 -0.08857570776115953 -1.5432387584000873 -0.08874253517159758 Z" fill="#8cc63e" transform="matrix(1,0,0,1,0,0)" fill-rule="evenodd"></path></g></g><g><path d=" M 1.21875 0.5009765625 Q 1.21875 0.557373046875 1.2117919921875 0.615234375 Q 1.204833984375 0.673095703125 1.18798828125 0.727294921875 Q 1.171142578125 0.781494140625 1.143310546875 0.8291015625 Q 1.115478515625 0.876708984375 1.0740966796875 0.9122314453125 Q 1.03271484375 0.94775390625 0.9759521484375 0.96826171875 Q 0.919189453125 0.98876953125 0.84521484375 0.98876953125 Q 0.76171875 0.98876953125 0.7012939453125 0.97119140625 Q 0.640869140625 0.95361328125 0.598388671875 0.9287109375 L 0.598388671875 1.099365234375 Q 0.598388671875 1.130126953125 0.6064453125 1.1466064453125 Q 0.614501953125 1.1630859375 0.626220703125 1.1715087890625 Q 0.637939453125 1.179931640625 0.6522216796875 1.1832275390625 Q 0.66650390625 1.1865234375 0.67822265625 1.190185546875 Q 0.68994140625 1.19384765625 0.697998046875 1.2008056640625 Q 0.7060546875 1.207763671875 0.7060546875 1.223876953125 Q 0.7060546875 1.307373046875 0.61962890625 1.3443603515625 Q 0.533203125 1.38134765625 0.369873046875 1.38134765625 Q 0.29150390625 1.38134765625 0.230712890625 1.37255859375 Q 0.169921875 1.36376953125 0.128173828125 1.3443603515625 Q 0.08642578125 1.324951171875 0.0648193359375 1.2952880859375 Q 0.043212890625 1.265625 0.043212890625 1.223876953125 Q 0.043212890625 1.207763671875 0.0509033203125 1.2008056640625 Q 0.05859375 1.19384765625 0.0706787109375 1.190185546875 Q 0.082763671875 1.1865234375 0.0963134765625 1.18359375 Q 0.10986328125 1.1806640625 0.1219482421875 1.1722412109375 Q 0.134033203125 1.163818359375 0.1417236328125 1.1480712890625 Q 0.1494140625 1.13232421875 0.1494140625 1.102294921875 L 0.1494140625 0.30029296875 Q 0.1494140625 0.27099609375 0.1417236328125 0.2548828125 Q 0.134033203125 0.23876953125 0.1219482421875 0.2303466796875 Q 0.10986328125 0.221923828125 0.0963134765625 0.218994140625 Q 0.082763671875 0.216064453125 0.0706787109375 0.21240234375 Q 0.05859375 0.208740234375 0.0509033203125 0.2017822265625 Q 0.043212890625 0.19482421875 0.043212890625 0.1787109375 Q 0.043212890625 0.136962890625 0.0648193359375 0.1072998046875 Q 0.08642578125 0.07763671875 0.128173828125 0.0582275390625 Q 0.169921875 0.038818359375 0.230712890625 0.030029296875 Q 0.29150390625 0.021240234375 0.369873046875 0.021240234375 Q 0.45556640625 0.021240234375 0.5020751953125 0.03369140625 Q 0.548583984375 0.046142578125 0.56982421875 0.07763671875 Q 0.59033203125 0.062255859375 0.61669921875 0.04833984375 Q 0.64306640625 0.034423828125 0.6763916015625 0.0238037109375 Q 0.709716796875 0.01318359375 0.7503662109375 0.006591796875 Q 0.791015625 0 0.8408203125 0 Q 0.914794921875 0 0.971923828125 0.021240234375 Q 1.029052734375 0.04248046875 1.0711669921875 0.0787353515625 Q 1.11328125 0.114990234375 1.1414794921875 0.1640625 Q 1.169677734375 0.213134765625 1.1868896484375 0.268798828125 Q 1.2041015625 0.324462890625 1.21142578125 0.3837890625 Q 1.21875 0.443115234375 1.21875 0.5009765625 M 0.598388671875 0.782958984375 Q 0.61376953125 0.788818359375 0.6298828125 0.791748046875 Q 0.64599609375 0.794677734375 0.662841796875 0.794677734375 Q 0.703857421875 0.794677734375 0.725830078125 0.7818603515625 Q 0.747802734375 0.76904296875 0.758056640625 0.736083984375 Q 0.768310546875 0.703125 0.7701416015625 0.646728515625 Q 0.77197265625 0.59033203125 0.77197265625 0.50390625 Q 0.77197265625 0.4130859375 0.765380859375 0.3519287109375 Q 0.7587890625 0.290771484375 0.744140625 0.2545166015625 Q 0.7294921875 0.21826171875 0.7060546875 0.202880859375 Q 0.6826171875 0.1875 0.64892578125 0.1875 Q 0.6357421875 0.1875 0.62255859375 0.189697265625 Q 0.609375 0.19189453125 0.598388671875 0.1962890625 Q 0.599853515625 0.218994140625 0.599853515625 0.24462890625 Q 0.599853515625 0.270263671875 0.599853515625 0.30029296875 L 0.598388671875 0.782958984375 M 1.8449707031250002 0.1875 Q 1.8215332031250002 0.1875 1.8010253906250002 0.1981201171875 Q 1.7805175781250002 0.208740234375 1.7655029296875002 0.230712890625 Q 1.7504882812500002 0.252685546875 1.7420654296875002 0.2867431640625 Q 1.7336425781250002 0.32080078125 1.7336425781250002 0.36767578125 L 1.9672851562500002 0.36767578125 Q 1.9672851562500002 0.31640625 1.9592285156250002 0.2816162109375 Q 1.9511718750000002 0.246826171875 1.9357910156250002 0.2259521484375 Q 1.9204101562500002 0.205078125 1.8973388671875002 0.1962890625 Q 1.8742675781250002 0.1875 1.8449707031250002 0.1875 M 1.7907714843750002 0 Q 1.8889160156250002 0 1.9676513671875002 0.029296875 Q 2.04638671875 0.05859375 2.1016845703125 0.10986328125 Q 2.156982421875 0.1611328125 2.1866455078125 0.2303466796875 Q 2.21630859375 0.299560546875 2.21630859375 0.37939453125 Q 2.21630859375 0.412353515625 2.2071533203125 0.4306640625 Q 2.197998046875 0.448974609375 2.18115234375 0.457763671875 Q 2.164306640625 0.466552734375 2.139404296875 0.46875 Q 2.114501953125 0.470947265625 2.0830078125 0.470947265625 L 1.7307128906250002 0.470947265625 Q 1.7307128906250002 0.551513671875 1.7471923828125002 0.6016845703125 Q 1.7636718750000002 0.65185546875 1.7929687500000002 0.6796875 Q 1.8222656250000002 0.70751953125 1.8632812500000002 0.7174072265625 Q 1.9042968750000002 0.727294921875 1.9541015625000002 0.727294921875 Q 1.9804687500000002 0.727294921875 2.0086669921875 0.72216796875 Q 2.036865234375 0.717041015625 2.0628662109375 0.708984375 Q 2.0888671875 0.700927734375 2.11083984375 0.692138671875 Q 2.1328125 0.683349609375 2.1474609375 0.67529296875 Q 2.1591796875 0.668701171875 2.170166015625 0.668701171875 Q 2.18701171875 0.668701171875 2.196533203125 0.6829833984375 Q 2.2060546875 0.697265625 2.2060546875 0.71484375 Q 2.2060546875 0.720703125 2.205322265625 0.725830078125 Q 2.20458984375 0.73095703125 2.202392578125 0.736083984375 Q 2.18115234375 0.790283203125 2.14453125 0.83642578125 Q 2.10791015625 0.882568359375 2.0555419921875 0.9166259765625 Q 2.003173828125 0.95068359375 1.9343261718750002 0.9697265625 Q 1.8654785156250002 0.98876953125 1.7797851562500002 0.98876953125 Q 1.6977539062500002 0.98876953125 1.6300048828125002 0.9693603515625 Q 1.5622558593750002 0.949951171875 1.5076904296875002 0.9151611328125 Q 1.4531250000000002 0.88037109375 1.4121093750000002 0.83349609375 Q 1.3710937500000002 0.78662109375 1.3439941406250002 0.7313232421875 Q 1.3168945312500002 0.676025390625 1.3033447265625002 0.6156005859375 Q 1.2897949218750002 0.55517578125 1.2897949218750002 0.49365234375 Q 1.2897949218750002 0.431396484375 1.3037109375000002 0.3702392578125 Q 1.3176269531250002 0.30908203125 1.3454589843750002 0.254150390625 Q 1.3732910156250002 0.19921875 1.4150390625000002 0.1527099609375 Q 1.4567871093750002 0.106201171875 1.5124511718750002 0.0721435546875 Q 1.5681152343750002 0.0380859375 1.6376953125000002 0.01904296875 Q 1.7072753906250002 0 1.7907714843750002 0 M 2.76708984375 0.8203125 Q 2.791259765625 0.8203125 2.8062744140625 0.8126220703125 Q 2.8212890625 0.804931640625 2.829345703125 0.7906494140625 Q 2.83740234375 0.7763671875 2.8399658203125 0.7554931640625 Q 2.842529296875 0.734619140625 2.842529296875 0.708251953125 Q 2.842529296875 0.685546875 2.841796875 0.650390625 Q 2.841064453125 0.615234375 2.84033203125 0.58154296875 Q 2.8388671875 0.5419921875 2.838134765625 0.49951171875 Q 2.827880859375 0.498046875 2.8187255859375 0.4969482421875 Q 2.8095703125 0.495849609375 2.80078125 0.495849609375 Q 2.763427734375 0.495849609375 2.7381591796875 0.5108642578125 Q 2.712890625 0.52587890625 2.697509765625 0.5526123046875 Q 2.68212890625 0.579345703125 2.6759033203125 0.6156005859375 Q 2.669677734375 0.65185546875 2.669677734375 0.6943359375 Q 2.669677734375 0.719970703125 2.672607421875 0.7430419921875 Q 2.675537109375 0.76611328125 2.685791015625 0.7833251953125 Q 2.696044921875 0.800537109375 2.7154541015625 0.8104248046875 Q 2.73486328125 0.8203125 2.76708984375 0.8203125 M 3.1201171875 0.970458984375 Q 3.082763671875 0.970458984375 3.0457763671875 0.9664306640625 Q 3.0087890625 0.96240234375 2.9754638671875 0.949951171875 Q 2.942138671875 0.9375 2.914306640625 0.9140625 Q 2.886474609375 0.890625 2.86669921875 0.851806640625 Q 2.85205078125 0.88623046875 2.8194580078125 0.911865234375 Q 2.786865234375 0.9375 2.7454833984375 0.9547119140625 Q 2.7041015625 0.971923828125 2.6583251953125 0.9803466796875 Q 2.612548828125 0.98876953125 2.57080078125 0.98876953125 Q 2.496826171875 0.98876953125 2.441162109375 0.97119140625 Q 2.385498046875 0.95361328125 2.347412109375 0.9210205078125 Q 2.309326171875 0.888427734375 2.290283203125 0.843017578125 Q 2.271240234375 0.797607421875 2.271240234375 0.7412109375 Q 2.271240234375 0.674560546875 2.2935791015625 0.6148681640625 Q 2.31591796875 0.55517578125 2.3697509765625 0.510498046875 Q 2.423583984375 0.4658203125 2.513671875 0.4398193359375 Q 2.603759765625 0.413818359375 2.7392578125 0.413818359375 L 2.839599609375 0.413818359375 Q 2.839599609375 0.33251953125 2.8341064453125 0.279052734375 Q 2.82861328125 0.2255859375 2.81689453125 0.194091796875 Q 2.80517578125 0.16259765625 2.78759765625 0.150146484375 Q 2.77001953125 0.1376953125 2.7451171875 0.1376953125 Q 2.71728515625 0.1376953125 2.6986083984375 0.154541015625 Q 2.679931640625 0.17138671875 2.6685791015625 0.2032470703125 Q 2.6572265625 0.235107421875 2.6524658203125 0.2801513671875 Q 2.647705078125 0.3251953125 2.647705078125 0.38232421875 Q 2.6162109375 0.38232421875 2.5814208984375 0.3812255859375 Q 2.546630859375 0.380126953125 2.5125732421875 0.375732421875 Q 2.478515625 0.371337890625 2.4481201171875 0.3621826171875 Q 2.417724609375 0.35302734375 2.394287109375 0.3372802734375 Q 2.370849609375 0.321533203125 2.35693359375 0.29736328125 Q 2.343017578125 0.273193359375 2.343017578125 0.23876953125 Q 2.343017578125 0.1904296875 2.3682861328125 0.147216796875 Q 2.3935546875 0.10400390625 2.4459228515625 0.0714111328125 Q 2.498291015625 0.038818359375 2.578857421875 0.0194091796875 Q 2.659423828125 0 2.770751953125 0 Q 2.900390625 0 2.994140625 0.0263671875 Q 3.087890625 0.052734375 3.1483154296875 0.10546875 Q 3.208740234375 0.158203125 3.2376708984375 0.2384033203125 Q 3.2666015625 0.318603515625 3.2666015625 0.42626953125 L 3.2666015625 0.685546875 Q 3.2666015625 0.717041015625 3.2750244140625 0.734619140625 Q 3.283447265625 0.752197265625 3.2955322265625 0.7613525390625 Q 3.3076171875 0.7705078125 3.322265625 0.774169921875 Q 3.3369140625 0.77783203125 3.3489990234375 0.7818603515625 Q 3.361083984375 0.785888671875 3.3695068359375 0.7928466796875 Q 3.3779296875 0.7998046875 3.3779296875 0.81591796875 Q 3.3779296875 0.88916015625 3.3123779296875 0.9298095703125 Q 3.246826171875 0.970458984375 3.1201171875 0.970458984375" fill="#04221e" fill-rule="nonzero"></path></g><g><path d=" M 0.5588785807291667 2.19382080078125 Q 0.59326171875 2.1409236653645833 0.59326171875 2.07663330078125 Q 0.59326171875 2.0123429361979164 0.5763753255208334 1.9708390299479164 Q 0.5594889322916667 1.9293351236979164 0.5299886067708334 1.9026831054687499 Q 0.50048828125 1.8760310872395831 0.45613606770833337 1.8593481445312499 Q 0.37556966145833337 1.8284236653645831 0.24617513020833334 1.8284236653645831 Q 0.18798828125 1.8284236653645831 0.18798828125 1.8377823893229164 L 0.18798828125 2.2922908528645833 Q 0.25227864583333337 2.2992081705729164 0.3277587890625 2.2992081705729164 Q 0.4032389322916667 2.2992081705729164 0.4638671875 2.2729630533854164 Q 0.5244954427083334 2.2467179361979164 0.5588785807291667 2.19382080078125 M 0.6610107421875 1.9437801106770831 Q 0.6840006510416667 1.9891495768229164 0.6840006510416667 2.0463191731770833 Q 0.6840006510416667 2.10348876953125 0.6663004557291667 2.15292724609375 Q 0.6486002604166667 2.20236572265625 0.6170654296875 2.23837646484375 Q 0.5855305989583334 2.27438720703125 0.5419921875 2.2996150716145833 Q 0.455322265625 2.3504777018229164 0.33650716145833337 2.3504777018229164 Q 0.2945963541666667 2.3496638997395833 0.1904296875 2.3496638997395833 Q 0.08626302083333334 2.3496638997395833 0.07080078125 2.34640869140625 Q 0.03946940104166667 2.3382706705729164 0.03824869791666667 2.3130428059895833 Q 0.03824869791666667 2.29880126953125 0.06591796875 2.29513916015625 Q 0.07893880208333334 2.2935115559895833 0.08341471354166667 2.29147705078125 Q 0.09928385416666667 2.2849666341145833 0.09928385416666667 2.26218017578125 L 0.09928385416666667 1.8658585611979164 Q 0.09928385416666667 1.8349340820312499 0.06876627604166667 1.8324926757812499 Q 0.04313151041666667 1.8304581705729164 0.04069010416666667 1.8247615559895831 Q 0.03824869791666667 1.8190649414062499 0.03824869791666667 1.8097062174479164 Q 0.03824869791666667 1.8003474934895831 0.04435221354166667 1.7928198242187499 Q 0.05045572916666667 1.7852921549479164 0.06632486979166667 1.7824438476562499 Q 0.086669921875 1.7787817382812499 0.142822265625 1.7787817382812499 L 0.2685546875 1.7787817382812499 Q 0.4838053385416667 1.7787817382812499 0.5989583333333334 1.8682999674479164 Q 0.6380208333333334 1.8984106445312499 0.6610107421875 1.9437801106770831 M 0.7206217447916667 2.1588273111979164 Q 0.7206217447916667 2.0672745768229164 0.7773844401041667 2.01010498046875 Q 0.8341471354166667 1.9529353841145831 0.9220377604166667 1.9529353841145831 Q 0.9916178385416667 1.9529353841145831 1.0394287109375 1.9978979492187499 Q 1.0872395833333335 2.0428605143229164 1.0872395833333335 2.11081298828125 Q 1.0872395833333335 2.14377197265625 1.03515625 2.14377197265625 L 0.799560546875 2.14377197265625 Q 0.8003743489583334 2.20968994140625 0.84228515625 2.25485595703125 Q 0.8841959635416667 2.30002197265625 0.9480794270833334 2.30002197265625 Q 0.9903971354166667 2.30002197265625 1.0302734375 2.2752010091145833 Q 1.0514322916666667 2.26218017578125 1.0573323567708335 2.26218017578125 Q 1.063232421875 2.26218017578125 1.0707600911458335 2.2680802408854164 Q 1.0782877604166667 2.2739803059895833 1.0782877604166667 2.2825252278645833 Q 1.0782877604166667 2.30490478515625 1.0496012369791667 2.32382568359375 Q 1.0209147135416667 2.34274658203125 0.986328125 2.35190185546875 Q 0.9517415364583334 2.36105712890625 0.9256998697916667 2.36105712890625 Q 0.8333333333333334 2.36105712890625 0.7769775390625 2.3057185872395833 Q 0.7206217447916667 2.2503800455729164 0.7206217447916667 2.1588273111979164 M 1.0123697916666667 2.10104736328125 Q 1.0115559895833335 2.0542537434895833 0.9879557291666667 2.0249568684895833 Q 0.96435546875 1.9956599934895831 0.9189860026041667 1.9956599934895831 Q 0.8736165364583334 1.9956599934895831 0.8396402994791667 2.0282120768229164 Q 0.8056640625 2.06076416015625 0.8036295572916667 2.1026749674479164 L 0.8988444010416667 2.1026749674479164 Q 0.9623209635416667 2.1026749674479164 1.0123697916666667 2.10104736328125 M 1.500244140625 2.1624894205729164 Q 1.500244140625 2.0684952799479164 1.4457194010416667 2.0257706705729164 Q 1.417236328125 2.0037980143229164 1.3777669270833335 2.0037980143229164 Q 1.260986328125 2.0037980143229164 1.260986328125 2.13522705078125 L 1.260986328125 2.2690974934895833 Q 1.2939453125 2.3118221028645833 1.37451171875 2.3118221028645833 Q 1.43310546875 2.3118221028645833 1.4666748046875 2.2697078450520833 Q 1.500244140625 2.2275935872395833 1.500244140625 2.1624894205729164 M 1.23779296875 2.5169002278645833 L 1.2027994791666667 2.51730712890625 Q 1.1494954427083333 2.51730712890625 1.1368815104166667 2.5010310872395833 Q 1.1311848958333333 2.4937068684895833 1.1311848958333333 2.4833308919270833 Q 1.1311848958333333 2.4729549153645833 1.1393229166666667 2.4688859049479164 Q 1.1474609375 2.46481689453125 1.1574300130208333 2.4644099934895833 Q 1.1673990885416667 2.4640030924479164 1.175537109375 2.45810302734375 Q 1.1836751302083333 2.4522029622395833 1.1836751302083333 2.43918212890625 L 1.1836751302083333 2.0721573893229164 Q 1.1836751302083333 2.0428605143229164 1.1794026692708333 2.0316707356770833 Q 1.1751302083333333 2.02048095703125 1.1600748697916667 2.0147843424479164 Q 1.158447265625 2.0139705403645833 1.143798828125 2.01071533203125 Q 1.11328125 2.00339111328125 1.11328125 1.9903702799479164 Q 1.11328125 1.9586319986979164 1.195068359375 1.9586319986979164 Q 1.2296549479166667 1.9586319986979164 1.2434895833333333 1.9667700195312499 Q 1.25732421875 1.9749080403645831 1.25732421875 2.0017635091145833 Q 1.25732421875 2.0099015299479164 1.2569173177083333 2.0139705403645833 Q 1.2882486979166667 1.9834529622395831 1.3199869791666667 1.9675838216145831 Q 1.3517252604166667 1.9517146809895831 1.4009602864583335 1.9517146809895831 Q 1.4501953125 1.9517146809895831 1.4931233723958335 1.9793839518229164 Q 1.5360514322916667 2.00705322265625 1.5580240885416667 2.0524226888020833 Q 1.5799967447916667 2.0977921549479164 1.5799967447916667 2.15353759765625 Q 1.5799967447916667 2.2418351236979164 1.522216796875 2.2992081705729164 Q 1.4644368489583335 2.3565812174479164 1.3753255208333335 2.3565812174479164 Q 1.3252766927083333 2.3565812174479164 1.260986328125 2.3236222330729164 L 1.260986328125 2.43918212890625 Q 1.260986328125 2.4627823893229164 1.2872314453125 2.46420654296875 Q 1.3134765625 2.4656306966145833 1.3134765625 2.4851619466145833 Q 1.3134765625 2.50754150390625 1.2886555989583333 2.5128312174479164 Q 1.270751953125 2.5169002278645833 1.23779296875 2.5169002278645833 M 1.6097005208333333 2.1588273111979164 Q 1.6097005208333333 2.0672745768229164 1.6664632161458333 2.01010498046875 Q 1.7232259114583333 1.9529353841145831 1.8111165364583333 1.9529353841145831 Q 1.8806966145833335 1.9529353841145831 1.9285074869791667 1.9978979492187499 Q 1.976318359375 2.0428605143229164 1.976318359375 2.11081298828125 Q 1.976318359375 2.14377197265625 1.9242350260416667 2.14377197265625 L 1.6886393229166667 2.14377197265625 Q 1.689453125 2.20968994140625 1.7313639322916667 2.25485595703125 Q 1.7732747395833333 2.30002197265625 1.837158203125 2.30002197265625 Q 1.8794759114583335 2.30002197265625 1.9193522135416667 2.2752010091145833 Q 1.9405110677083335 2.26218017578125 1.9464111328125 2.26218017578125 Q 1.9523111979166667 2.26218017578125 1.9598388671875 2.2680802408854164 Q 1.9673665364583335 2.2739803059895833 1.9673665364583335 2.2825252278645833 Q 1.9673665364583335 2.30490478515625 1.9386800130208335 2.32382568359375 Q 1.9099934895833335 2.34274658203125 1.8754069010416667 2.35190185546875 Q 1.8408203125 2.36105712890625 1.8147786458333333 2.36105712890625 Q 1.722412109375 2.36105712890625 1.6660563151041667 2.3057185872395833 Q 1.6097005208333333 2.2503800455729164 1.6097005208333333 2.1588273111979164 M 1.9014485677083335 2.10104736328125 Q 1.900634765625 2.0542537434895833 1.8770345052083335 2.0249568684895833 Q 1.8534342447916667 1.9956599934895831 1.8080647786458333 1.9956599934895831 Q 1.7626953125 1.9956599934895831 1.7287190755208333 2.0282120768229164 Q 1.6947428385416667 2.06076416015625 1.6927083333333333 2.1026749674479164 L 1.7879231770833333 2.1026749674479164 Q 1.8513997395833335 2.1026749674479164 1.9014485677083335 2.10104736328125 M 2.1439615885416665 2.35007080078125 L 2.108968098958333 2.3504777018229164 Q 2.0556640625 2.3504777018229164 2.043050130208333 2.33420166015625 Q 2.037353515625 2.32687744140625 2.037353515625 2.31650146484375 Q 2.037353515625 2.30612548828125 2.045491536458333 2.3020564778645833 Q 2.0536295572916665 2.2979874674479164 2.0635986328125 2.29758056640625 Q 2.073567708333333 2.2971736653645833 2.0817057291666665 2.2912736002604164 Q 2.08984375 2.28537353515625 2.08984375 2.2723527018229164 L 2.08984375 2.04001220703125 Q 2.08984375 2.0164119466145833 2.060546875 2.0115291341145833 Q 2.0402018229166665 2.00827392578125 2.0359293619791665 2.0044083658854164 Q 2.0316569010416665 2.0005428059895833 2.0316569010416665 1.9905737304687499 Q 2.0316569010416665 1.9806046549479164 2.0458984375 1.9724666341145831 Q 2.069905598958333 1.9578181966145831 2.1063232421875 1.9578181966145831 Q 2.1427408854166665 1.9578181966145831 2.1531168619791665 1.9681941731770831 Q 2.1634928385416665 1.9785701497395831 2.1634928385416665 2.01437744140625 Q 2.21923828125 1.9513077799479164 2.31689453125 1.9513077799479164 Q 2.396240234375 1.9513077799479164 2.429402669270833 1.9946427408854164 Q 2.4625651041666665 2.0379777018229164 2.4625651041666665 2.1258683268229164 L 2.4625651041666665 2.2723527018229164 Q 2.4625651041666665 2.2959529622395833 2.4888102213541665 2.2973771158854164 Q 2.5150553385416665 2.29880126953125 2.5150553385416665 2.31833251953125 Q 2.5150553385416665 2.34030517578125 2.489827473958333 2.3460017903645833 Q 2.4711100260416665 2.35007080078125 2.4381510416666665 2.35007080078125 L 2.403157552083333 2.3504777018229164 Q 2.349853515625 2.3504777018229164 2.337239583333333 2.33420166015625 Q 2.33154296875 2.32687744140625 2.33154296875 2.31650146484375 Q 2.33154296875 2.30612548828125 2.339680989583333 2.3020564778645833 Q 2.3478190104166665 2.2979874674479164 2.3577880859375 2.29758056640625 Q 2.367757161458333 2.2971736653645833 2.3758951822916665 2.2912736002604164 Q 2.384033203125 2.28537353515625 2.384033203125 2.2723527018229164 L 2.384033203125 2.1539444986979164 Q 2.384033203125 2.0782609049479164 2.366536458333333 2.0432674153645833 Q 2.347005208333333 2.0037980143229164 2.2880045572916665 2.0037980143229164 Q 2.216796875 2.0037980143229164 2.191162109375 2.0416398111979164 Q 2.1671549479166665 2.0774471028645833 2.1671549479166665 2.15597900390625 L 2.1671549479166665 2.2723527018229164 Q 2.1671549479166665 2.2959529622395833 2.1934000651041665 2.2973771158854164 Q 2.2196451822916665 2.29880126953125 2.2196451822916665 2.31833251953125 Q 2.2196451822916665 2.3407120768229164 2.19482421875 2.3460017903645833 Q 2.1769205729166665 2.35007080078125 2.1439615885416665 2.35007080078125 M 2.822469075520833 2.00888427734375 Q 2.7905273437499996 1.9956599934895831 2.751057942708333 1.9956599934895831 Q 2.7115885416666665 1.9956599934895831 2.683919270833333 2.0184464518229164 Q 2.630208333333333 2.0627986653645833 2.630208333333333 2.1494685872395833 Q 2.630208333333333 2.2166072591145833 2.6666259765624996 2.2631974283854164 Q 2.7030436197916665 2.30978759765625 2.761433919270833 2.30978759765625 Q 2.8198242187499996 2.30978759765625 2.845662434895833 2.2855769856770833 Q 2.8715006510416665 2.2613663736979164 2.8715006510416665 2.2052140299479164 L 2.8715006510416665 2.0444881184895833 Q 2.8544108072916665 2.0221085611979164 2.822469075520833 2.00888427734375 M 2.7591959635416665 1.9517146809895831 Q 2.7860514322916665 1.9517146809895831 2.8192138671874996 1.9604630533854164 Q 2.852376302083333 1.9692114257812499 2.8715006510416665 1.9789770507812499 L 2.8715006510416665 1.8426652018229164 Q 2.8715006510416665 1.8056372070312499 2.8422037760416665 1.8027888997395831 Q 2.8393554687499996 1.8023819986979164 2.8348795572916665 1.8019750976562499 Q 2.830403645833333 1.8015681966145831 2.8283691406249996 1.8013647460937499 Q 2.8263346354166665 1.8011612955729164 2.8232828776041665 1.8005509440104164 Q 2.8202311197916665 1.7999405924479164 2.818806966145833 1.7991267903645831 Q 2.8173828124999996 1.7983129882812499 2.8161621093749996 1.7970922851562499 Q 2.813313802083333 1.7946508789062499 2.813313802083333 1.7852921549479164 Q 2.813313802083333 1.7759334309895831 2.8259277343749996 1.7657609049479164 Q 2.848714192708333 1.7470434570312499 2.8873697916666665 1.7470434570312499 Q 2.9284667968749996 1.7470434570312499 2.935384114583333 1.7519262695312499 Q 2.9492187499999996 1.7616918945312499 2.9492187499999996 1.7775610351562499 L 2.9492187499999996 2.2227107747395833 Q 2.9492187499999996 2.2678767903645833 2.9589843749999996 2.2813045247395833 Q 2.9691569010416665 2.2943253580729164 2.9770914713541665 2.2971736653645833 Q 2.9850260416666665 2.30002197265625 2.990926106770833 2.3020564778645833 Q 2.9968261718749996 2.3040909830729164 2.9992675781249996 2.3051082356770833 Q 3.0017089843749996 2.30612548828125 3.0053710937499996 2.30856689453125 Q 3.0118815104166665 2.31222900390625 3.0118815104166665 2.3199601236979164 Q 3.0118815104166665 2.3370499674479164 2.9937744140624996 2.3449845377604164 Q 2.975667317708333 2.3529191080729164 2.945760091145833 2.3529191080729164 Q 2.915852864583333 2.3529191080729164 2.902425130208333 2.34152587890625 Q 2.888997395833333 2.3301326497395833 2.8788248697916665 2.2996150716145833 Q 2.8454589843749996 2.35861572265625 2.7396647135416665 2.35861572265625 Q 2.6550292968749996 2.35861572265625 2.6019287109374996 2.30246337890625 Q 2.5488281249999996 2.24631103515625 2.5488281249999996 2.1567928059895833 Q 2.5488281249999996 2.0672745768229164 2.6078287760416665 2.00949462890625 Q 2.666829427083333 1.9517146809895831 2.7591959635416665 1.9517146809895831 M 3.050537109375 2.1588273111979164 Q 3.050537109375 2.0672745768229164 3.1072998046875 2.01010498046875 Q 3.1640625 1.9529353841145831 3.251953125 1.9529353841145831 Q 3.321533203125 1.9529353841145831 3.369344075520833 1.9978979492187499 Q 3.4171549479166665 2.0428605143229164 3.4171549479166665 2.11081298828125 Q 3.4171549479166665 2.14377197265625 3.365071614583333 2.14377197265625 L 3.129475911458333 2.14377197265625 Q 3.1302897135416665 2.20968994140625 3.172200520833333 2.25485595703125 Q 3.214111328125 2.30002197265625 3.2779947916666665 2.30002197265625 Q 3.3203125 2.30002197265625 3.360188802083333 2.2752010091145833 Q 3.38134765625 2.26218017578125 3.3872477213541665 2.26218017578125 Q 3.393147786458333 2.26218017578125 3.4006754557291665 2.2680802408854164 Q 3.408203125 2.2739803059895833 3.408203125 2.2825252278645833 Q 3.408203125 2.30490478515625 3.3795166015625 2.32382568359375 Q 3.350830078125 2.34274658203125 3.316243489583333 2.35190185546875 Q 3.2816569010416665 2.36105712890625 3.255615234375 2.36105712890625 Q 3.1632486979166665 2.36105712890625 3.106892903645833 2.3057185872395833 Q 3.050537109375 2.2503800455729164 3.050537109375 2.1588273111979164 M 3.34228515625 2.10104736328125 Q 3.3414713541666665 2.0542537434895833 3.31787109375 2.0249568684895833 Q 3.294270833333333 1.9956599934895831 3.2489013671875 1.9956599934895831 Q 3.2035319010416665 1.9956599934895831 3.1695556640625 2.0282120768229164 Q 3.135579427083333 2.06076416015625 3.133544921875 2.1026749674479164 L 3.228759765625 2.1026749674479164 Q 3.292236328125 2.1026749674479164 3.34228515625 2.10104736328125 M 3.584798177083333 2.35007080078125 L 3.5498046874999996 2.3504777018229164 Q 3.4965006510416665 2.3504777018229164 3.4838867187499996 2.33420166015625 Q 3.4781901041666665 2.32687744140625 3.4781901041666665 2.31650146484375 Q 3.4781901041666665 2.30612548828125 3.4863281249999996 2.3020564778645833 Q 3.494466145833333 2.2979874674479164 3.5044352213541665 2.29758056640625 Q 3.5144042968749996 2.2971736653645833 3.522542317708333 2.2912736002604164 Q 3.5306803385416665 2.28537353515625 3.5306803385416665 2.2723527018229164 L 3.5306803385416665 2.04001220703125 Q 3.5306803385416665 2.0164119466145833 3.5013834635416665 2.0115291341145833 Q 3.481038411458333 2.00827392578125 3.476765950520833 2.0044083658854164 Q 3.472493489583333 2.0005428059895833 3.472493489583333 1.9905737304687499 Q 3.472493489583333 1.9806046549479164 3.4867350260416665 1.9724666341145831 Q 3.5107421874999996 1.9578181966145831 3.5471598307291665 1.9578181966145831 Q 3.583577473958333 1.9578181966145831 3.593953450520833 1.9681941731770831 Q 3.604329427083333 1.9785701497395831 3.604329427083333 2.01437744140625 Q 3.6600748697916665 1.9513077799479164 3.7577311197916665 1.9513077799479164 Q 3.8370768229166665 1.9513077799479164 3.8702392578124996 1.9946427408854164 Q 3.903401692708333 2.0379777018229164 3.903401692708333 2.1258683268229164 L 3.903401692708333 2.2723527018229164 Q 3.903401692708333 2.2959529622395833 3.929646809895833 2.2973771158854164 Q 3.955891927083333 2.29880126953125 3.955891927083333 2.31833251953125 Q 3.955891927083333 2.34030517578125 3.9306640624999996 2.3460017903645833 Q 3.911946614583333 2.35007080078125 3.878987630208333 2.35007080078125 L 3.8439941406249996 2.3504777018229164 Q 3.7906901041666665 2.3504777018229164 3.7780761718749996 2.33420166015625 Q 3.7723795572916665 2.32687744140625 3.7723795572916665 2.31650146484375 Q 3.7723795572916665 2.30612548828125 3.7805175781249996 2.3020564778645833 Q 3.788655598958333 2.2979874674479164 3.7986246744791665 2.29758056640625 Q 3.8085937499999996 2.2971736653645833 3.816731770833333 2.2912736002604164 Q 3.8248697916666665 2.28537353515625 3.8248697916666665 2.2723527018229164 L 3.8248697916666665 2.1539444986979164 Q 3.8248697916666665 2.0782609049479164 3.8073730468749996 2.0432674153645833 Q 3.7878417968749996 2.0037980143229164 3.728841145833333 2.0037980143229164 Q 3.6576334635416665 2.0037980143229164 3.6319986979166665 2.0416398111979164 Q 3.607991536458333 2.0774471028645833 3.607991536458333 2.15597900390625 L 3.607991536458333 2.2723527018229164 Q 3.607991536458333 2.2959529622395833 3.634236653645833 2.2973771158854164 Q 3.660481770833333 2.29880126953125 3.660481770833333 2.31833251953125 Q 3.660481770833333 2.3407120768229164 3.6356608072916665 2.3460017903645833 Q 3.617757161458333 2.35007080078125 3.584798177083333 2.35007080078125 M 4.357096354166667 2.27072509765625 Q 4.375406901041667 2.27072509765625 4.375406901041667 2.28781494140625 Q 4.375406901041667 2.2971736653645833 4.369710286458333 2.3032771809895833 Q 4.315592447916667 2.36105712890625 4.214274088541667 2.36105712890625 Q 4.112955729166667 2.36105712890625 4.053751627604167 2.30612548828125 Q 3.9945475260416665 2.25119384765625 3.9945475260416665 2.16086181640625 Q 3.9945475260416665 2.1018611653645833 4.023234049479167 2.05405029296875 Q 4.051920572916667 2.0062394205729164 4.101359049479167 1.9793839518229164 Q 4.150797526041667 1.9525284830729164 4.211018880208333 1.9525284830729164 Q 4.295247395833333 1.9525284830729164 4.3408203125 1.9960668945312499 Q 4.364827473958333 2.01926025390625 4.364827473958333 2.0501847330729164 Q 4.364827473958333 2.0684952799479164 4.349568684895833 2.0811092122395833 Q 4.334309895833333 2.09372314453125 4.313151041666667 2.09372314453125 Q 4.2919921875 2.09372314453125 4.282633463541667 2.09006103515625 Q 4.27978515625 2.0440812174479164 4.263712565104167 2.0194637044270833 Q 4.247639973958333 1.9948461914062499 4.209798177083333 1.9948461914062499 Q 4.14794921875 1.9948461914062499 4.112752278645833 2.0343155924479164 Q 4.077555338541667 2.0737849934895833 4.077555338541667 2.1405167643229164 Q 4.077555338541667 2.20724853515625 4.122517903645833 2.2564835611979164 Q 4.16748046875 2.3057185872395833 4.23583984375 2.3057185872395833 Q 4.276123046875 2.3057185872395833 4.334716796875 2.2772355143229164 Q 4.347330729166667 2.27072509765625 4.357096354166667 2.27072509765625 M 4.641520182291666 2.2666560872395833 Q 4.744466145833333 2.0489640299479164 4.744466145833333 2.0367569986979164 Q 4.744466145833333 2.0245499674479164 4.735514322916666 2.0196671549479164 Q 4.7265625 2.0147843424479164 4.715983072916666 2.0139705403645833 Q 4.6875 2.0111222330729164 4.6875 1.9972875976562499 Q 4.6875 1.9602596028645831 4.774983723958333 1.9602596028645831 L 4.791259765625 1.9602596028645831 Q 4.830322265625 1.9602596028645831 4.847208658854166 1.9728735351562499 Q 4.864095052083333 1.9854874674479164 4.864095052083333 1.9964737955729164 Q 4.864095052083333 2.0074601236979164 4.851888020833333 2.0099015299479164 Q 4.82666015625 2.01437744140625 4.814249674479166 2.0239396158854164 Q 4.801839192708333 2.0335017903645833 4.7900390625 2.0591365559895833 Q 4.778238932291666 2.0847713216145833 4.750569661458333 2.1466202799479164 Q 4.722900390625 2.20846923828125 4.704182942708333 2.24753173828125 L 4.61669921875 2.4273819986979164 Q 4.602864583333333 2.4566788736979164 4.581095377604166 2.4760066731770833 Q 4.559326171875 2.49533447265625 4.529622395833333 2.49533447265625 Q 4.499918619791666 2.49533447265625 4.477742513020833 2.4804825846354164 Q 4.45556640625 2.4656306966145833 4.45556640625 2.44223388671875 Q 4.45556640625 2.4188370768229164 4.4696044921875 2.4052058919270833 Q 4.483642578125 2.39157470703125 4.504801432291666 2.39157470703125 Q 4.525960286458333 2.39157470703125 4.5428466796875 2.4021541341145833 Q 4.559733072916666 2.4127335611979164 4.560546875 2.42819580078125 Q 4.593098958333333 2.3765193684895833 4.604085286458333 2.34762939453125 Q 4.586995442708333 2.3004288736979164 4.526163736979166 2.18222412109375 Q 4.46533203125 2.0640193684895833 4.458821614583333 2.05038818359375 Q 4.452311197916666 2.0367569986979164 4.4476318359375 2.03146728515625 Q 4.442952473958333 2.0261775716145833 4.435628255208333 2.0225154622395833 Q 4.428304036458333 2.0188533528645833 4.423421223958333 2.0172257486979164 Q 4.418538411458333 2.01559814453125 4.407552083333333 2.0127498372395833 Q 4.396565755208333 2.0099015299479164 4.389851888020833 2.0078670247395833 Q 4.383138020833333 2.00583251953125 4.383138020833333 1.9952530924479164 Q 4.383138020833333 1.9602596028645831 4.479166666666666 1.9602596028645831 Q 4.538167317708333 1.9602596028645831 4.554850260416666 1.9663631184895831 Q 4.586995442708333 1.9777563476562499 4.586995442708333 1.9964737955729164 Q 4.586995442708333 2.0090877278645833 4.562784830729166 2.01376708984375 Q 4.53857421875 2.0184464518229164 4.53857421875 2.03146728515625 Q 4.53857421875 2.0330948893229164 4.552815755208333 2.0701228841145833 Q 4.599609375 2.19137939453125 4.641520182291666 2.2666560872395833 M 5.141194661458333 2.35007080078125 Q 5.052083333333333 2.35007080078125 5.052083333333333 2.31344970703125 Q 5.052083333333333 2.2992081705729164 5.079752604166666 2.2955460611979164 Q 5.092773437499999 2.2935115559895833 5.097249348958333 2.29147705078125 Q 5.113118489583333 2.2849666341145833 5.113118489583333 2.2625870768229164 L 5.113118489583333 1.8658585611979164 Q 5.113118489583333 1.8365616861979164 5.082600911458333 1.8324926757812499 Q 5.076904296874999 1.8316788736979164 5.072021484374999 1.8310685221354164 Q 5.067138671874999 1.8304581705729164 5.063883463541666 1.8298478190104164 Q 5.060628255208333 1.8292374674479164 5.059407552083333 1.8284236653645831 Q 5.058186848958333 1.8276098632812499 5.056355794270833 1.8261857096354164 Q 5.054524739583333 1.8247615559895831 5.053710937499999 1.8227270507812499 Q 5.052083333333333 1.8174373372395831 5.052083333333333 1.8119441731770831 Q 5.052083333333333 1.8064510091145831 5.053914388020833 1.8015681966145831 Q 5.055745442708333 1.7966853841145831 5.060424804687499 1.7930232747395831 Q 5.065104166666666 1.7893611653645831 5.069376627604166 1.7869197591145831 Q 5.073649088541666 1.7844783528645831 5.082397460937499 1.7830541992187499 Q 5.091145833333333 1.7816300455729164 5.097045898437499 1.7806127929687499 Q 5.102945963541666 1.7795955403645831 5.115152994791666 1.7791886393229164 Q 5.127360026041666 1.7787817382812499 5.134277343749999 1.7787817382812499 Q 5.147298177083333 1.7787817382812499 5.160319010416666 1.7787817382812499 Q 5.173339843749999 1.7787817382812499 5.181681315104166 1.7789851888020831 Q 5.190022786458333 1.7791886393229164 5.201822916666666 1.7800024414062499 Q 5.213623046874999 1.7808162434895831 5.221354166666666 1.7820369466145831 Q 5.229085286458333 1.7832576497395831 5.237833658854166 1.7861059570312499 Q 5.246582031249999 1.7889542643229164 5.251464843749999 1.7926163736979164 Q 5.263264973958333 1.8011612955729164 5.263264973958333 1.8127579752604164 Q 5.263264973958333 1.8243546549479164 5.255330403645833 1.8278133138020831 Q 5.247395833333333 1.8312719726562499 5.234781901041666 1.8326961263020831 Q 5.222167968749999 1.8341202799479164 5.217692057291666 1.8361547851562499 Q 5.201822916666666 1.8434790039062499 5.201822916666666 1.8658585611979164 L 5.201822916666666 2.2625870768229164 Q 5.201822916666666 2.28049072265625 5.211385091145833 2.2880183919270833 Q 5.220947265624999 2.2955460611979164 5.234578450520833 2.29697021484375 Q 5.248209635416666 2.2983943684895833 5.252278645833333 2.2996150716145833 Q 5.263264973958333 2.3020564778645833 5.263264973958333 2.31283935546875 Q 5.263264973958333 2.3236222330729164 5.259602864583333 2.3297257486979164 Q 5.255940755208333 2.3358292643229164 5.247395833333333 2.33969482421875 Q 5.238850911458333 2.3435603841145833 5.231119791666666 2.34579833984375 Q 5.223388671874999 2.3480362955729164 5.208740234374999 2.34885009765625 Q 5.186767578124999 2.35007080078125 5.141194661458333 2.35007080078125 M 5.444335937499999 2.35007080078125 L 5.409342447916666 2.3504777018229164 Q 5.356038411458332 2.3504777018229164 5.343424479166666 2.33420166015625 Q 5.337727864583332 2.32687744140625 5.337727864583332 2.31650146484375 Q 5.337727864583332 2.30612548828125 5.345865885416666 2.3020564778645833 Q 5.354003906249999 2.2979874674479164 5.363972981770832 2.29758056640625 Q 5.373942057291666 2.2971736653645833 5.382080078124999 2.2912736002604164 Q 5.390218098958332 2.28537353515625 5.390218098958332 2.2723527018229164 L 5.390218098958332 2.04001220703125 Q 5.390218098958332 2.0164119466145833 5.360921223958332 2.0115291341145833 Q 5.340576171874999 2.00827392578125 5.336303710937499 2.0044083658854164 Q 5.332031249999999 2.0005428059895833 5.332031249999999 1.9905737304687499 Q 5.332031249999999 1.9806046549479164 5.346272786458332 1.9724666341145831 Q 5.370279947916666 1.9578181966145831 5.406697591145832 1.9578181966145831 Q 5.443115234374999 1.9578181966145831 5.453491210937499 1.9681941731770831 Q 5.463867187499999 1.9785701497395831 5.463867187499999 2.01437744140625 Q 5.519612630208332 1.9513077799479164 5.617268880208332 1.9513077799479164 Q 5.696614583333332 1.9513077799479164 5.729777018229166 1.9946427408854164 Q 5.762939453124999 2.0379777018229164 5.762939453124999 2.1258683268229164 L 5.762939453124999 2.2723527018229164 Q 5.762939453124999 2.2959529622395833 5.789184570312499 2.2973771158854164 Q 5.815429687499999 2.29880126953125 5.815429687499999 2.31833251953125 Q 5.815429687499999 2.34030517578125 5.790201822916666 2.3460017903645833 Q 5.771484374999999 2.35007080078125 5.738525390624999 2.35007080078125 L 5.703531901041666 2.3504777018229164 Q 5.650227864583332 2.3504777018229164 5.637613932291666 2.33420166015625 Q 5.631917317708332 2.32687744140625 5.631917317708332 2.31650146484375 Q 5.631917317708332 2.30612548828125 5.640055338541666 2.3020564778645833 Q 5.648193359374999 2.2979874674479164 5.658162434895832 2.29758056640625 Q 5.668131510416666 2.2971736653645833 5.676269531249999 2.2912736002604164 Q 5.684407552083332 2.28537353515625 5.684407552083332 2.2723527018229164 L 5.684407552083332 2.1539444986979164 Q 5.684407552083332 2.0782609049479164 5.666910807291666 2.0432674153645833 Q 5.647379557291666 2.0037980143229164 5.588378906249999 2.0037980143229164 Q 5.517171223958332 2.0037980143229164 5.491536458333332 2.0416398111979164 Q 5.467529296874999 2.0774471028645833 5.467529296874999 2.15597900390625 L 5.467529296874999 2.2723527018229164 Q 5.467529296874999 2.2959529622395833 5.493774414062499 2.2973771158854164 Q 5.520019531249999 2.29880126953125 5.520019531249999 2.31833251953125 Q 5.520019531249999 2.3407120768229164 5.495198567708332 2.3460017903645833 Q 5.477294921874999 2.35007080078125 5.444335937499999 2.35007080078125 M 5.997314453124999 1.8023819986979164 Q 6.016845703124999 1.8137752278645831 6.016845703124999 1.8347306315104164 Q 6.016845703124999 1.8556860351562499 5.999959309895833 1.8701310221354164 Q 5.983072916666666 1.8845760091145831 5.959676106770833 1.8845760091145831 Q 5.936279296874999 1.8845760091145831 5.919392903645833 1.8707413736979164 Q 5.902506510416666 1.8569067382812499 5.902506510416666 1.8385961914062499 Q 5.902506510416666 1.8202856445312499 5.918579101562499 1.8056372070312499 Q 5.934651692708333 1.7909887695312499 5.956217447916666 1.7909887695312499 Q 5.977783203124999 1.7909887695312499 5.997314453124999 1.8023819986979164 M 5.837809244791666 2.42819580078125 Q 5.837809244791666 2.40378173828125 5.875651041666666 2.3948299153645833 Q 5.891520182291666 2.3911678059895833 5.907389322916666 2.3875056966145833 Q 5.945638020833333 2.3785538736979164 5.945638020833333 2.35739501953125 Q 5.945638020833333 2.3431534830729164 5.941365559895833 2.3260636393229164 Q 5.937093098958333 2.3089737955729164 5.936279296874999 2.3040909830729164 L 5.932210286458333 2.28415283203125 L 5.932210286458333 2.0538468424479164 Q 5.932210286458333 2.01681884765625 5.903320312499999 2.0139705403645833 Q 5.900472005208333 2.0135636393229164 5.895996093749999 2.01315673828125 Q 5.891520182291666 2.0127498372395833 5.889485677083333 2.01254638671875 Q 5.887451171874999 2.0123429361979164 5.884399414062499 2.0117325846354164 Q 5.881347656249999 2.0111222330729164 5.879923502604166 2.0103084309895833 Q 5.878499348958333 2.00949462890625 5.876871744791666 2.00827392578125 Q 5.874023437499999 2.0062394205729164 5.874023437499999 1.9966772460937499 Q 5.874023437499999 1.9871150716145831 5.886230468749999 1.9769425455729164 Q 5.909423828124999 1.9582250976562499 5.948079427083333 1.9582250976562499 Q 5.989176432291666 1.9582250976562499 5.996093749999999 1.9631079101562499 Q 6.009928385416666 1.9728735351562499 6.009928385416666 1.9887426757812499 L 6.009928385416666 2.2882218424479164 Q 6.009928385416666 2.3740779622395833 5.982869466145833 2.4127335611979164 Q 5.955810546874999 2.45138916015625 5.884602864583333 2.4595271809895833 Q 5.883382161458333 2.45993408203125 5.880533854166666 2.45993408203125 L 5.877685546874999 2.45993408203125 Q 5.837809244791666 2.45993408203125 5.837809244791666 2.42819580078125 M 6.090087890624999 2.1588273111979164 Q 6.090087890624999 2.0672745768229164 6.146850585937499 2.01010498046875 Q 6.203613281249999 1.9529353841145831 6.291503906249999 1.9529353841145831 Q 6.361083984374999 1.9529353841145831 6.408894856770833 1.9978979492187499 Q 6.456705729166666 2.0428605143229164 6.456705729166666 2.11081298828125 Q 6.456705729166666 2.14377197265625 6.404622395833333 2.14377197265625 L 6.169026692708333 2.14377197265625 Q 6.169840494791666 2.20968994140625 6.211751302083333 2.25485595703125 Q 6.253662109374999 2.30002197265625 6.317545572916666 2.30002197265625 Q 6.359863281249999 2.30002197265625 6.399739583333333 2.2752010091145833 Q 6.420898437499999 2.26218017578125 6.426798502604166 2.26218017578125 Q 6.432698567708333 2.26218017578125 6.440226236979166 2.2680802408854164 Q 6.447753906249999 2.2739803059895833 6.447753906249999 2.2825252278645833 Q 6.447753906249999 2.30490478515625 6.419067382812499 2.32382568359375 Q 6.390380859374999 2.34274658203125 6.355794270833333 2.35190185546875 Q 6.321207682291666 2.36105712890625 6.295166015624999 2.36105712890625 Q 6.202799479166666 2.36105712890625 6.146443684895833 2.3057185872395833 Q 6.090087890624999 2.2503800455729164 6.090087890624999 2.1588273111979164 M 6.381835937499999 2.10104736328125 Q 6.381022135416666 2.0542537434895833 6.357421874999999 2.0249568684895833 Q 6.333821614583333 1.9956599934895831 6.288452148437499 1.9956599934895831 Q 6.243082682291666 1.9956599934895831 6.209106445312499 2.0282120768229164 Q 6.175130208333333 2.06076416015625 6.173095703124999 2.1026749674479164 L 6.268310546874999 2.1026749674479164 Q 6.331787109374999 2.1026749674479164 6.381835937499999 2.10104736328125 M 6.859130859375 2.27072509765625 Q 6.87744140625 2.27072509765625 6.87744140625 2.28781494140625 Q 6.87744140625 2.2971736653645833 6.871744791666666 2.3032771809895833 Q 6.817626953125 2.36105712890625 6.71630859375 2.36105712890625 Q 6.614990234375 2.36105712890625 6.5557861328125 2.30612548828125 Q 6.49658203125 2.25119384765625 6.49658203125 2.16086181640625 Q 6.49658203125 2.1018611653645833 6.5252685546875 2.05405029296875 Q 6.553955078125 2.0062394205729164 6.6033935546875 1.9793839518229164 Q 6.65283203125 1.9525284830729164 6.713053385416666 1.9525284830729164 Q 6.797281901041666 1.9525284830729164 6.842854817708333 1.9960668945312499 Q 6.866861979166666 2.01926025390625 6.866861979166666 2.0501847330729164 Q 6.866861979166666 2.0684952799479164 6.851603190104166 2.0811092122395833 Q 6.836344401041666 2.09372314453125 6.815185546875 2.09372314453125 Q 6.794026692708333 2.09372314453125 6.78466796875 2.09006103515625 Q 6.781819661458333 2.0440812174479164 6.7657470703125 2.0194637044270833 Q 6.749674479166666 1.9948461914062499 6.711832682291666 1.9948461914062499 Q 6.649983723958333 1.9948461914062499 6.614786783854166 2.0343155924479164 Q 6.57958984375 2.0737849934895833 6.57958984375 2.1405167643229164 Q 6.57958984375 2.20724853515625 6.624552408854166 2.2564835611979164 Q 6.669514973958333 2.3057185872395833 6.737874348958333 2.3057185872395833 Q 6.778157552083333 2.3057185872395833 6.836751302083333 2.2772355143229164 Q 6.849365234375 2.27072509765625 6.859130859375 2.27072509765625 M 6.959635416666666 2.01315673828125 L 6.934814453124999 2.0135636393229164 Q 6.919759114583333 2.0135636393229164 6.912841796874999 2.01071533203125 Q 6.905924479166666 2.0078670247395833 6.905924479166666 1.9987117513020831 Q 6.905924479166666 1.9895564778645831 6.913859049479166 1.9820288085937499 Q 6.921793619791666 1.9745011393229164 6.931966145833333 1.9704321289062499 Q 6.960042317708333 1.9590388997395831 6.965535481770833 1.9511043294270831 Q 6.971028645833333 1.9431697591145831 6.982014973958333 1.9163142903645831 Q 7.009277343749999 1.8491756184895831 7.027587890624999 1.8491756184895831 Q 7.036946614583333 1.8491756184895831 7.038370768229166 1.8693172200520831 Q 7.039794921874999 1.8894588216145831 7.039998372395833 1.9000382486979164 Q 7.040201822916666 1.9106176757812499 7.039794921874999 1.9315730794270831 Q 7.039388020833333 1.9525284830729164 7.039388020833333 1.9606665039062499 L 7.136230468749999 1.9610734049479164 Q 7.150472005208333 1.9610734049479164 7.160237630208333 1.9681941731770831 Q 7.170003255208333 1.9753149414062499 7.170003255208333 1.9871150716145831 Q 7.170003255208333 1.9989152018229164 7.160441080729166 2.0054256184895833 Q 7.150878906249999 2.01193603515625 7.136637369791666 2.01193603515625 L 7.039388020833333 2.01193603515625 L 7.038981119791666 2.2198624674479164 Q 7.038981119791666 2.3081599934895833 7.083333333333333 2.3081599934895833 Q 7.095540364583333 2.3081599934895833 7.119547526041666 2.30063232421875 Q 7.143554687499999 2.2931046549479164 7.150878906249999 2.2931046549479164 Q 7.167561848958333 2.2931046549479164 7.167561848958333 2.31222900390625 Q 7.167561848958333 2.3272843424479164 7.128295898437499 2.3423396809895833 Q 7.089029947916666 2.35739501953125 7.047729492187499 2.35739501953125 Q 7.006429036458333 2.35739501953125 6.983032226562499 2.3252498372395833 Q 6.959635416666666 2.2931046549479164 6.959635416666666 2.2406144205729164 L 6.959635416666666 2.01315673828125 M 7.279866536458333 1.8394099934895831 Q 7.279866536458333 1.8215063476562499 7.297159830729166 1.8058406575520831 Q 7.314453124999999 1.7901749674479164 7.335001627604166 1.7901749674479164 Q 7.355550130208333 1.7901749674479164 7.374877929687499 1.8027888997395831 Q 7.394205729166666 1.8154028320312499 7.394205729166666 1.8361547851562499 Q 7.394205729166666 1.8569067382812499 7.377929687499999 1.8709448242187499 Q 7.361653645833333 1.8849829101562499 7.338053385416666 1.8849829101562499 Q 7.314453124999999 1.8849829101562499 7.297159830729166 1.8719620768229164 Q 7.279866536458333 1.8589412434895831 7.279866536458333 1.8394099934895831 M 7.364908854166666 2.35007080078125 L 7.329915364583333 2.3504777018229164 Q 7.276611328124999 2.3504777018229164 7.263997395833333 2.33420166015625 Q 7.258300781249999 2.32687744140625 7.258300781249999 2.31650146484375 Q 7.258300781249999 2.30612548828125 7.266438802083333 2.3020564778645833 Q 7.274576822916666 2.2979874674479164 7.284545898437499 2.29758056640625 Q 7.294514973958333 2.2971736653645833 7.302652994791666 2.2912736002604164 Q 7.310791015624999 2.28537353515625 7.310791015624999 2.2723527018229164 L 7.310791015624999 2.05343994140625 Q 7.310791015624999 2.0164119466145833 7.281901041666666 2.0135636393229164 Q 7.279052734374999 2.01315673828125 7.274576822916666 2.0127498372395833 Q 7.270100911458333 2.0123429361979164 7.268066406249999 2.0121394856770833 Q 7.266031901041666 2.01193603515625 7.262980143229166 2.01132568359375 Q 7.259928385416666 2.01071533203125 7.258504231770833 2.0099015299479164 Q 7.257080078124999 2.0090877278645833 7.255452473958333 2.0078670247395833 Q 7.252604166666666 2.00583251953125 7.252604166666666 1.9962703450520831 Q 7.252604166666666 1.9867081705729164 7.264811197916666 1.9765356445312499 Q 7.288004557291666 1.9578181966145831 7.326660156249999 1.9578181966145831 Q 7.362467447916666 1.9578181966145831 7.368774414062499 1.9606665039062499 Q 7.375081380208333 1.9635148111979164 7.379557291666666 1.9667700195312499 Q 7.388102213541666 1.9724666341145831 7.388102213541666 1.9883357747395831 L 7.388102213541666 2.2723527018229164 Q 7.388102213541666 2.2959529622395833 7.414347330729166 2.2973771158854164 Q 7.440592447916666 2.29880126953125 7.440592447916666 2.31833251953125 Q 7.440592447916666 2.3407120768229164 7.416178385416666 2.3460017903645833 Q 7.397460937499999 2.35007080078125 7.364908854166666 2.35007080078125 M 7.698160807291666 2.3602433268229164 Q 7.606201171874999 2.3602433268229164 7.550048828124999 2.3022599283854164 Q 7.493896484374999 2.2442765299479164 7.493896484374999 2.1551652018229164 Q 7.493896484374999 2.0957576497395833 7.523600260416666 2.0493709309895833 Q 7.553304036458333 2.0029842122395833 7.603963216145833 1.9783666992187499 Q 7.654622395833333 1.9537491861979164 7.716878255208333 1.9537491861979164 Q 7.806396484374999 1.9537491861979164 7.864583333333333 2.00949462890625 Q 7.922770182291666 2.0652400716145833 7.922770182291666 2.15353759765625 Q 7.922770182291666 2.21457275390625 7.892862955729166 2.2619767252604164 Q 7.862955729166666 2.3093806966145833 7.812093098958333 2.33481201171875 Q 7.761230468749999 2.3602433268229164 7.698160807291666 2.3602433268229164 M 7.809448242187499 2.2739803059895833 Q 7.843424479166666 2.23288330078125 7.843424479166666 2.16452392578125 Q 7.843424479166666 2.09616455078125 7.804361979166666 2.0465226236979164 Q 7.765299479166666 1.9968806966145831 7.704060872395833 1.9968806966145831 Q 7.642822265624999 1.9968806966145831 7.609863281249999 2.03879150390625 Q 7.576904296874999 2.0807023111979164 7.576904296874999 2.14865478515625 Q 7.576904296874999 2.2166072591145833 7.615559895833333 2.26584228515625 Q 7.654215494791666 2.3150773111979164 7.714843749999999 2.3150773111979164 Q 7.775472005208333 2.3150773111979164 7.809448242187499 2.2739803059895833 M 8.079427083333332 2.35007080078125 L 8.04443359375 2.3504777018229164 Q 7.991129557291666 2.3504777018229164 7.978515625 2.33420166015625 Q 7.972819010416666 2.32687744140625 7.972819010416666 2.31650146484375 Q 7.972819010416666 2.30612548828125 7.98095703125 2.3020564778645833 Q 7.989095052083333 2.2979874674479164 7.999064127604166 2.29758056640625 Q 8.009033203125 2.2971736653645833 8.017171223958332 2.2912736002604164 Q 8.025309244791666 2.28537353515625 8.025309244791666 2.2723527018229164 L 8.025309244791666 2.04001220703125 Q 8.025309244791666 2.0164119466145833 7.996012369791666 2.0115291341145833 Q 7.975667317708333 2.00827392578125 7.971394856770833 2.0044083658854164 Q 7.967122395833333 2.0005428059895833 7.967122395833333 1.9905737304687499 Q 7.967122395833333 1.9806046549479164 7.981363932291666 1.9724666341145831 Q 8.00537109375 1.9578181966145831 8.041788736979166 1.9578181966145831 Q 8.078206380208332 1.9578181966145831 8.088582356770832 1.9681941731770831 Q 8.098958333333332 1.9785701497395831 8.098958333333332 2.01437744140625 Q 8.154703776041666 1.9513077799479164 8.252360026041666 1.9513077799479164 Q 8.331705729166666 1.9513077799479164 8.3648681640625 1.9946427408854164 Q 8.398030598958332 2.0379777018229164 8.398030598958332 2.1258683268229164 L 8.398030598958332 2.2723527018229164 Q 8.398030598958332 2.2959529622395833 8.424275716145832 2.2973771158854164 Q 8.450520833333332 2.29880126953125 8.450520833333332 2.31833251953125 Q 8.450520833333332 2.34030517578125 8.42529296875 2.3460017903645833 Q 8.406575520833332 2.35007080078125 8.373616536458332 2.35007080078125 L 8.338623046875 2.3504777018229164 Q 8.285319010416666 2.3504777018229164 8.272705078125 2.33420166015625 Q 8.267008463541666 2.32687744140625 8.267008463541666 2.31650146484375 Q 8.267008463541666 2.30612548828125 8.275146484375 2.3020564778645833 Q 8.283284505208332 2.2979874674479164 8.293253580729166 2.29758056640625 Q 8.30322265625 2.2971736653645833 8.311360677083332 2.2912736002604164 Q 8.319498697916666 2.28537353515625 8.319498697916666 2.2723527018229164 L 8.319498697916666 2.1539444986979164 Q 8.319498697916666 2.0782609049479164 8.302001953125 2.0432674153645833 Q 8.282470703125 2.0037980143229164 8.223470052083332 2.0037980143229164 Q 8.152262369791666 2.0037980143229164 8.126627604166666 2.0416398111979164 Q 8.102620442708332 2.0774471028645833 8.102620442708332 2.15597900390625 L 8.102620442708332 2.2723527018229164 Q 8.102620442708332 2.2959529622395833 8.128865559895832 2.2973771158854164 Q 8.155110677083332 2.29880126953125 8.155110677083332 2.31833251953125 Q 8.155110677083332 2.3407120768229164 8.130289713541666 2.3460017903645833 Q 8.112386067708332 2.35007080078125 8.079427083333332 2.35007080078125 M 8.6688232421875 2.33053955078125 Q 8.665771484375 2.32443603515625 8.665771484375 2.31528076171875 Q 8.665771484375 2.30612548828125 8.673909505208334 2.3020564778645833 Q 8.682047526041666 2.2979874674479164 8.6920166015625 2.29758056640625 Q 8.701985677083334 2.2971736653645833 8.710123697916666 2.2912736002604164 Q 8.71826171875 2.28537353515625 8.71826171875 2.2723527018229164 L 8.71826171875 2.0111222330729164 L 8.689778645833334 2.0111222330729164 Q 8.67919921875 2.0111222330729164 8.672078450520834 2.0035945638020833 Q 8.664957682291666 1.9960668945312499 8.664957682291666 1.9818253580729164 Q 8.664957682291666 1.9675838216145831 8.671875 1.9631079101562499 Q 8.678792317708334 1.9586319986979164 8.697509765625 1.9586319986979164 L 8.71826171875 1.9586319986979164 L 8.71826171875 1.8988175455729164 Q 8.71826171875 1.8304581705729164 8.759562174479166 1.7934301757812499 Q 8.800862630208334 1.7564021809895831 8.872477213541666 1.7564021809895831 Q 8.931070963541666 1.7564021809895831 8.957112630208334 1.7795955403645831 Q 8.97216796875 1.7926163736979164 8.97216796875 1.8137752278645831 Q 8.97216796875 1.8634171549479164 8.922119140625 1.8634171549479164 Q 8.878580729166666 1.8634171549479164 8.878580729166666 1.8137752278645831 L 8.878580729166666 1.8080786132812499 Q 8.863118489583334 1.8015681966145831 8.847249348958334 1.8015681966145831 Q 8.777669270833334 1.8015681966145831 8.777669270833334 1.8739965820312499 Q 8.777669270833334 1.9220109049479164 8.795572916666666 1.9586319986979164 L 8.854573567708334 1.9586319986979164 Q 8.883870442708334 1.9586319986979164 8.883870442708334 1.9757218424479164 Q 8.883870442708334 1.9895564778645831 8.8751220703125 1.9997290039062499 Q 8.866373697916666 2.0099015299479164 8.855794270833334 2.0099015299479164 L 8.795572916666666 2.0099015299479164 L 8.795572916666666 2.2723527018229164 Q 8.795572916666666 2.2959529622395833 8.821818033854166 2.2973771158854164 Q 8.848063151041666 2.29880126953125 8.848063151041666 2.31833251953125 Q 8.848063151041666 2.3407120768229164 8.817952473958334 2.3460017903645833 Q 8.795979817708334 2.35007080078125 8.774617513020834 2.35007080078125 Q 8.753255208333334 2.35007080078125 8.743896484375 2.35007080078125 Q 8.734537760416666 2.35007080078125 8.727823893229166 2.3498673502604164 Q 8.721110026041666 2.3496638997395833 8.709513346354166 2.34885009765625 Q 8.697916666666666 2.3480362955729164 8.691813151041666 2.3460017903645833 Q 8.685709635416666 2.34396728515625 8.678792317708334 2.34030517578125 Q 8.671875 2.33664306640625 8.6688232421875 2.33053955078125 M 9.162190755208334 2.3602433268229164 Q 9.070231119791668 2.3602433268229164 9.014078776041668 2.3022599283854164 Q 8.957926432291668 2.2442765299479164 8.957926432291668 2.1551652018229164 Q 8.957926432291668 2.0957576497395833 8.987630208333334 2.0493709309895833 Q 9.017333984375 2.0029842122395833 9.0679931640625 1.9783666992187499 Q 9.11865234375 1.9537491861979164 9.180908203125 1.9537491861979164 Q 9.270426432291668 1.9537491861979164 9.32861328125 2.00949462890625 Q 9.386800130208334 2.0652400716145833 9.386800130208334 2.15353759765625 Q 9.386800130208334 2.21457275390625 9.356892903645834 2.2619767252604164 Q 9.326985677083334 2.3093806966145833 9.276123046875 2.33481201171875 Q 9.225260416666668 2.3602433268229164 9.162190755208334 2.3602433268229164 M 9.273478190104168 2.2739803059895833 Q 9.307454427083334 2.23288330078125 9.307454427083334 2.16452392578125 Q 9.307454427083334 2.09616455078125 9.268391927083334 2.0465226236979164 Q 9.229329427083334 1.9968806966145831 9.1680908203125 1.9968806966145831 Q 9.106852213541668 1.9968806966145831 9.073893229166668 2.03879150390625 Q 9.040934244791668 2.0807023111979164 9.040934244791668 2.14865478515625 Q 9.040934244791668 2.2166072591145833 9.07958984375 2.26584228515625 Q 9.118245442708334 2.3150773111979164 9.178873697916668 2.3150773111979164 Q 9.239501953125 2.3150773111979164 9.273478190104168 2.2739803059895833 M 9.544677734375 2.35007080078125 L 9.509684244791666 2.3504777018229164 Q 9.456380208333334 2.3504777018229164 9.443766276041666 2.33420166015625 Q 9.438069661458334 2.32687744140625 9.438069661458334 2.31650146484375 Q 9.438069661458334 2.30612548828125 9.446207682291666 2.3020564778645833 Q 9.454345703125 2.2979874674479164 9.464314778645834 2.29758056640625 Q 9.474283854166666 2.2971736653645833 9.482421875 2.2912736002604164 Q 9.490559895833334 2.28537353515625 9.490559895833334 2.2723527018229164 L 9.490559895833334 2.0713435872395833 Q 9.490559895833334 2.03512939453125 9.4818115234375 2.02658447265625 Q 9.473063151041666 2.01803955078125 9.4671630859375 2.01559814453125 Q 9.461263020833334 2.01315673828125 9.448649088541666 2.00949462890625 Q 9.43603515625 2.00583251953125 9.4281005859375 2.00217041015625 Q 9.420166015625 1.9985083007812499 9.420166015625 1.9911840820312499 Q 9.420166015625 1.9586319986979164 9.507649739583334 1.9586319986979164 Q 9.544677734375 1.9586319986979164 9.554646809895834 1.9714493815104164 Q 9.564615885416666 1.9842667643229164 9.564615885416666 2.0306534830729164 Q 9.578450520833334 1.9956599934895831 9.610392252604166 1.9757218424479164 Q 9.642333984375 1.9557836914062499 9.6759033203125 1.9557836914062499 Q 9.70947265625 1.9557836914062499 9.731241861979166 1.9702286783854164 Q 9.753011067708334 1.9846736653645831 9.753011067708334 2.0068497721354164 Q 9.753011067708334 2.02902587890625 9.73876953125 2.0422501627604164 Q 9.724527994791666 2.0554744466145833 9.703776041666666 2.0554744466145833 Q 9.683024088541666 2.0554744466145833 9.668172200520834 2.0444881184895833 Q 9.6533203125 2.0335017903645833 9.648844401041666 2.0160050455729164 Q 9.638264973958334 2.01437744140625 9.63134765625 2.01437744140625 Q 9.56787109375 2.01437744140625 9.56787109375 2.1604549153645833 L 9.56787109375 2.2723527018229164 Q 9.56787109375 2.2959529622395833 9.5941162109375 2.2973771158854164 Q 9.620361328125 2.29880126953125 9.620361328125 2.31833251953125 Q 9.620361328125 2.3407120768229164 9.595947265625 2.3460017903645833 Q 9.577229817708334 2.35007080078125 9.544677734375 2.35007080078125 M 9.975992838541666 2.01315673828125 L 9.951171875 2.0135636393229164 Q 9.936116536458332 2.0135636393229164 9.92919921875 2.01071533203125 Q 9.922281901041666 2.0078670247395833 9.922281901041666 1.9987117513020831 Q 9.922281901041666 1.9895564778645831 9.930216471354166 1.9820288085937499 Q 9.938151041666666 1.9745011393229164 9.948323567708332 1.9704321289062499 Q 9.976399739583332 1.9590388997395831 9.981892903645832 1.9511043294270831 Q 9.987386067708332 1.9431697591145831 9.998372395833332 1.9163142903645831 Q 10.025634765625 1.8491756184895831 10.0439453125 1.8491756184895831 Q 10.053304036458332 1.8491756184895831 10.054728190104166 1.8693172200520831 Q 10.05615234375 1.8894588216145831 10.056355794270832 1.9000382486979164 Q 10.056559244791666 1.9106176757812499 10.05615234375 1.9315730794270831 Q 10.055745442708332 1.9525284830729164 10.055745442708332 1.9606665039062499 L 10.152587890625 1.9610734049479164 Q 10.166829427083332 1.9610734049479164 10.176595052083332 1.9681941731770831 Q 10.186360677083332 1.9753149414062499 10.186360677083332 1.9871150716145831 Q 10.186360677083332 1.9989152018229164 10.176798502604166 2.0054256184895833 Q 10.167236328125 2.01193603515625 10.152994791666666 2.01193603515625 L 10.055745442708332 2.01193603515625 L 10.055338541666666 2.2198624674479164 Q 10.055338541666666 2.3081599934895833 10.099690755208332 2.3081599934895833 Q 10.111897786458332 2.3081599934895833 10.135904947916666 2.30063232421875 Q 10.159912109375 2.2931046549479164 10.167236328125 2.2931046549479164 Q 10.183919270833332 2.2931046549479164 10.183919270833332 2.31222900390625 Q 10.183919270833332 2.3272843424479164 10.1446533203125 2.3423396809895833 Q 10.105387369791666 2.35739501953125 10.0640869140625 2.35739501953125 Q 10.022786458333332 2.35739501953125 9.9993896484375 2.3252498372395833 Q 9.975992838541666 2.2931046549479164 9.975992838541666 2.2406144205729164 L 9.975992838541666 2.01315673828125 M 10.653076171875 2.35007080078125 L 10.618082682291666 2.3504777018229164 Q 10.564778645833332 2.3504777018229164 10.552164713541666 2.33420166015625 Q 10.546468098958332 2.32687744140625 10.546468098958332 2.31650146484375 Q 10.546468098958332 2.30612548828125 10.554606119791666 2.3020564778645833 Q 10.562744140625 2.2979874674479164 10.572713216145832 2.29758056640625 Q 10.582682291666666 2.2971736653645833 10.5908203125 2.2912736002604164 Q 10.598958333333332 2.28537353515625 10.598958333333332 2.2723527018229164 L 10.599365234375 2.1539444986979164 Q 10.599365234375 2.07907470703125 10.581461588541666 2.04367431640625 Q 10.561930338541666 2.0037980143229164 10.500081380208332 2.0037980143229164 Q 10.434977213541666 2.0037980143229164 10.408935546875 2.04489501953125 Q 10.385335286458332 2.0831437174479164 10.385335286458332 2.15597900390625 L 10.385335286458332 2.2723527018229164 Q 10.385335286458332 2.2959529622395833 10.411580403645832 2.2973771158854164 Q 10.437825520833332 2.29880126953125 10.437825520833332 2.31833251953125 Q 10.437825520833332 2.3407120768229164 10.413004557291666 2.3460017903645833 Q 10.395100911458332 2.35007080078125 10.362141927083332 2.35007080078125 L 10.3271484375 2.3504777018229164 Q 10.273844401041666 2.3504777018229164 10.26123046875 2.33420166015625 Q 10.255533854166666 2.32687744140625 10.255533854166666 2.31650146484375 Q 10.255533854166666 2.30612548828125 10.263671875 2.3020564778645833 Q 10.271809895833332 2.2979874674479164 10.281778971354166 2.29758056640625 Q 10.291748046875 2.2971736653645833 10.299886067708332 2.2912736002604164 Q 10.308024088541666 2.28537353515625 10.308024088541666 2.2723527018229164 L 10.308024088541666 1.8292374674479164 Q 10.308024088541666 1.8056372070312499 10.278727213541666 1.8007543945312499 Q 10.258382161458332 1.7974991861979164 10.254109700520832 1.7936336263020831 Q 10.249837239583332 1.7897680664062499 10.249837239583332 1.7808162434895831 Q 10.249837239583332 1.7718644205729164 10.258382161458332 1.7645402018229164 Q 10.266927083333332 1.7572159830729164 10.28076171875 1.7535538736979164 Q 10.30517578125 1.7470434570312499 10.335286458333332 1.7470434570312499 Q 10.3857421875 1.7470434570312499 10.3857421875 1.7775610351562499 L 10.3857421875 2.0139705403645833 Q 10.441080729166666 1.9513077799479164 10.525716145833332 1.9513077799479164 Q 10.6103515625 1.9513077799479164 10.643513997395832 1.9946427408854164 Q 10.676676432291666 2.0379777018229164 10.676676432291666 2.1258683268229164 L 10.67626953125 2.2723527018229164 Q 10.67626953125 2.2959529622395833 10.7025146484375 2.2973771158854164 Q 10.728759765625 2.29880126953125 10.728759765625 2.31833251953125 Q 10.728759765625 2.3407120768229164 10.704345703125 2.3460017903645833 Q 10.685628255208332 2.35007080078125 10.653076171875 2.35007080078125 M 10.764973958333334 2.1588273111979164 Q 10.764973958333334 2.0672745768229164 10.821736653645834 2.01010498046875 Q 10.878499348958334 1.9529353841145831 10.966389973958334 1.9529353841145831 Q 11.035970052083334 1.9529353841145831 11.083780924479166 1.9978979492187499 Q 11.131591796875 2.0428605143229164 11.131591796875 2.11081298828125 Q 11.131591796875 2.14377197265625 11.079508463541666 2.14377197265625 L 10.843912760416666 2.14377197265625 Q 10.8447265625 2.20968994140625 10.886637369791666 2.25485595703125 Q 10.928548177083334 2.30002197265625 10.992431640625 2.30002197265625 Q 11.034749348958334 2.30002197265625 11.074625651041666 2.2752010091145833 Q 11.095784505208334 2.26218017578125 11.1016845703125 2.26218017578125 Q 11.107584635416666 2.26218017578125 11.1151123046875 2.2680802408854164 Q 11.122639973958334 2.2739803059895833 11.122639973958334 2.2825252278645833 Q 11.122639973958334 2.30490478515625 11.093953450520834 2.32382568359375 Q 11.065266927083334 2.34274658203125 11.030680338541666 2.35190185546875 Q 10.99609375 2.36105712890625 10.970052083333334 2.36105712890625 Q 10.877685546875 2.36105712890625 10.821329752604166 2.3057185872395833 Q 10.764973958333334 2.2503800455729164 10.764973958333334 2.1588273111979164 M 11.056722005208334 2.10104736328125 Q 11.055908203125 2.0542537434895833 11.032307942708334 2.0249568684895833 Q 11.008707682291666 1.9956599934895831 10.963338216145834 1.9956599934895831 Q 10.91796875 1.9956599934895831 10.883992513020834 2.0282120768229164 Q 10.850016276041666 2.06076416015625 10.847981770833334 2.1026749674479164 L 10.943196614583334 2.1026749674479164 Q 11.006673177083334 2.1026749674479164 11.056722005208334 2.10104736328125 M 11.453043619791666 2.35007080078125 L 11.418050130208332 2.3504777018229164 Q 11.36474609375 2.3504777018229164 11.352132161458332 2.33420166015625 Q 11.346435546875 2.32687744140625 11.346435546875 2.31650146484375 Q 11.346435546875 2.30612548828125 11.354573567708332 2.3020564778645833 Q 11.362711588541666 2.2979874674479164 11.3726806640625 2.29758056640625 Q 11.382649739583332 2.2971736653645833 11.390787760416666 2.2912736002604164 Q 11.39892578125 2.28537353515625 11.39892578125 2.2723527018229164 L 11.39892578125 2.0713435872395833 Q 11.39892578125 2.03512939453125 11.390177408854166 2.02658447265625 Q 11.381429036458332 2.01803955078125 11.375528971354166 2.01559814453125 Q 11.36962890625 2.01315673828125 11.357014973958332 2.00949462890625 Q 11.344401041666666 2.00583251953125 11.336466471354166 2.00217041015625 Q 11.328531901041666 1.9985083007812499 11.328531901041666 1.9911840820312499 Q 11.328531901041666 1.9586319986979164 11.416015625 1.9586319986979164 Q 11.453043619791666 1.9586319986979164 11.4630126953125 1.9714493815104164 Q 11.472981770833332 1.9842667643229164 11.472981770833332 2.0306534830729164 Q 11.48681640625 1.9956599934895831 11.518758138020832 1.9757218424479164 Q 11.550699869791666 1.9557836914062499 11.584269205729166 1.9557836914062499 Q 11.617838541666666 1.9557836914062499 11.639607747395832 1.9702286783854164 Q 11.661376953125 1.9846736653645831 11.661376953125 2.0068497721354164 Q 11.661376953125 2.02902587890625 11.647135416666666 2.0422501627604164 Q 11.632893880208332 2.0554744466145833 11.612141927083332 2.0554744466145833 Q 11.591389973958332 2.0554744466145833 11.5765380859375 2.0444881184895833 Q 11.561686197916666 2.0335017903645833 11.557210286458332 2.0160050455729164 Q 11.546630859375 2.01437744140625 11.539713541666666 2.01437744140625 Q 11.476236979166666 2.01437744140625 11.476236979166666 2.1604549153645833 L 11.476236979166666 2.2723527018229164 Q 11.476236979166666 2.2959529622395833 11.502482096354166 2.2973771158854164 Q 11.528727213541666 2.29880126953125 11.528727213541666 2.31833251953125 Q 11.528727213541666 2.3407120768229164 11.504313151041666 2.3460017903645833 Q 11.485595703125 2.35007080078125 11.453043619791666 2.35007080078125 M 11.688639322916666 2.1588273111979164 Q 11.688639322916666 2.0672745768229164 11.745402018229166 2.01010498046875 Q 11.802164713541666 1.9529353841145831 11.890055338541666 1.9529353841145831 Q 11.959635416666666 1.9529353841145831 12.007446289062498 1.9978979492187499 Q 12.055257161458332 2.0428605143229164 12.055257161458332 2.11081298828125 Q 12.055257161458332 2.14377197265625 12.003173828124998 2.14377197265625 L 11.767578124999998 2.14377197265625 Q 11.768391927083332 2.20968994140625 11.810302734374998 2.25485595703125 Q 11.852213541666666 2.30002197265625 11.916097005208332 2.30002197265625 Q 11.958414713541666 2.30002197265625 11.998291015624998 2.2752010091145833 Q 12.019449869791666 2.26218017578125 12.025349934895832 2.26218017578125 Q 12.031249999999998 2.26218017578125 12.038777669270832 2.2680802408854164 Q 12.046305338541666 2.2739803059895833 12.046305338541666 2.2825252278645833 Q 12.046305338541666 2.30490478515625 12.017618815104166 2.32382568359375 Q 11.988932291666666 2.34274658203125 11.954345703124998 2.35190185546875 Q 11.919759114583332 2.36105712890625 11.893717447916666 2.36105712890625 Q 11.801350911458332 2.36105712890625 11.744995117187498 2.3057185872395833 Q 11.688639322916666 2.2503800455729164 11.688639322916666 2.1588273111979164 M 11.980387369791666 2.10104736328125 Q 11.979573567708332 2.0542537434895833 11.955973307291666 2.0249568684895833 Q 11.932373046874998 1.9956599934895831 11.887003580729166 1.9956599934895831 Q 11.841634114583332 1.9956599934895831 11.807657877604166 2.0282120768229164 Q 11.773681640624998 2.06076416015625 11.771647135416666 2.1026749674479164 L 11.866861979166666 2.1026749674479164 Q 11.930338541666666 2.1026749674479164 11.980387369791666 2.10104736328125 M 12.288411458333332 2.3130428059895833 Q 12.379964192708332 2.3130428059895833 12.379964192708332 2.2568904622395833 Q 12.379964192708332 2.21457275390625 12.297363281249998 2.1905655924479164 Q 12.281901041666664 2.1860896809895833 12.259928385416664 2.1799861653645833 Q 12.218831380208332 2.1689998372395833 12.204589843749998 2.16330322265625 Q 12.168782552083332 2.1494685872395833 12.143961588541664 2.12302001953125 Q 12.119140624999998 2.0965714518229164 12.119140624999998 2.0603572591145833 Q 12.119140624999998 2.0135636393229164 12.163696289062498 1.9826391601562499 Q 12.208251953124998 1.9517146809895831 12.271321614583332 1.9517146809895831 Q 12.332763671874998 1.9517146809895831 12.386474609374998 1.9740942382812499 Q 12.412923177083332 1.9850805664062499 12.429402669270832 2.00461181640625 Q 12.445882161458332 2.02414306640625 12.445882161458332 2.0453019205729164 Q 12.445882161458332 2.0664607747395833 12.428995768229164 2.07907470703125 Q 12.412109374999998 2.0916886393229164 12.394002278645832 2.0916886393229164 Q 12.375895182291664 2.0916886393229164 12.369995117187498 2.08822998046875 Q 12.364095052083332 2.0847713216145833 12.364095052083332 2.0721573893229164 Q 12.364095052083332 1.9936254882812499 12.280680338541664 1.9936254882812499 Q 12.246093749999998 1.9936254882812499 12.220458984374998 2.00888427734375 Q 12.194824218749998 2.02414306640625 12.194824218749998 2.04855712890625 Q 12.194824218749998 2.0868058268229164 12.274576822916664 2.1091853841145833 Q 12.287190755208332 2.1124405924479164 12.305094401041664 2.1171199544270833 Q 12.322998046874998 2.12179931640625 12.338053385416664 2.1264786783854164 Q 12.353108723958332 2.1311580403645833 12.369588216145832 2.1374650065104164 Q 12.386067708333332 2.14377197265625 12.404378255208332 2.1539444986979164 Q 12.422688802083332 2.1641170247395833 12.434082031249998 2.1759171549479164 Q 12.460530598958332 2.2027726236979164 12.460530598958332 2.24081787109375 Q 12.460530598958332 2.2788631184895833 12.434895833333332 2.3065323893229164 Q 12.384033203124998 2.3606502278645833 12.288411458333332 2.3606502278645833 Q 12.226155598958332 2.3606502278645833 12.173665364583332 2.34030517578125 Q 12.146809895833332 2.3297257486979164 12.130533854166664 2.31100830078125 Q 12.114257812499998 2.2922908528645833 12.114257812499998 2.2711319986979164 Q 12.114257812499998 2.24997314453125 12.127685546874998 2.23837646484375 Q 12.141113281249998 2.22677978515625 12.158203124999998 2.22677978515625 Q 12.175292968749998 2.22677978515625 12.187296549479164 2.2373592122395833 Q 12.199300130208332 2.2479386393229164 12.199300130208332 2.2636043294270833 Q 12.199300130208332 2.27927001953125 12.196451822916664 2.2971736653645833 Q 12.239583333333332 2.3130428059895833 12.288411458333332 2.3130428059895833 M 12.559000651041664 2.01315673828125 L 12.534179687499998 2.0135636393229164 Q 12.51912434895833 2.0135636393229164 12.512207031249998 2.01071533203125 Q 12.505289713541664 2.0078670247395833 12.505289713541664 1.9987117513020831 Q 12.505289713541664 1.9895564778645831 12.513224283854164 1.9820288085937499 Q 12.521158854166664 1.9745011393229164 12.53133138020833 1.9704321289062499 Q 12.55940755208333 1.9590388997395831 12.56490071614583 1.9511043294270831 Q 12.57039388020833 1.9431697591145831 12.58138020833333 1.9163142903645831 Q 12.608642578124998 1.8491756184895831 12.626953124999998 1.8491756184895831 Q 12.63631184895833 1.8491756184895831 12.637736002604164 1.8693172200520831 Q 12.639160156249998 1.8894588216145831 12.63936360677083 1.9000382486979164 Q 12.639567057291664 1.9106176757812499 12.639160156249998 1.9315730794270831 Q 12.63875325520833 1.9525284830729164 12.63875325520833 1.9606665039062499 L 12.735595703124998 1.9610734049479164 Q 12.74983723958333 1.9610734049479164 12.75960286458333 1.9681941731770831 Q 12.76936848958333 1.9753149414062499 12.76936848958333 1.9871150716145831 Q 12.76936848958333 1.9989152018229164 12.759806315104164 2.0054256184895833 Q 12.750244140624998 2.01193603515625 12.736002604166664 2.01193603515625 L 12.63875325520833 2.01193603515625 L 12.638346354166664 2.2198624674479164 Q 12.638346354166664 2.3081599934895833 12.68269856770833 2.3081599934895833 Q 12.69490559895833 2.3081599934895833 12.718912760416664 2.30063232421875 Q 12.742919921874998 2.2931046549479164 12.750244140624998 2.2931046549479164 Q 12.76692708333333 2.2931046549479164 12.76692708333333 2.31222900390625 Q 12.76692708333333 2.3272843424479164 12.727661132812498 2.3423396809895833 Q 12.688395182291664 2.35739501953125 12.647094726562498 2.35739501953125 Q 12.60579427083333 2.35739501953125 12.582397460937498 2.3252498372395833 Q 12.559000651041664 2.2931046549479164 12.559000651041664 2.2406144205729164 L 12.559000651041664 2.01315673828125 M 13.175455729166664 2.3602433268229164 Q 13.083496093749998 2.3602433268229164 13.027343749999998 2.3022599283854164 Q 12.971191406249998 2.2442765299479164 12.971191406249998 2.1551652018229164 Q 12.971191406249998 2.0957576497395833 13.000895182291664 2.0493709309895833 Q 13.03059895833333 2.0029842122395833 13.08125813802083 1.9783666992187499 Q 13.13191731770833 1.9537491861979164 13.19417317708333 1.9537491861979164 Q 13.283691406249998 1.9537491861979164 13.34187825520833 2.00949462890625 Q 13.400065104166664 2.0652400716145833 13.400065104166664 2.15353759765625 Q 13.400065104166664 2.21457275390625 13.370157877604164 2.2619767252604164 Q 13.340250651041664 2.3093806966145833 13.28938802083333 2.33481201171875 Q 13.238525390624998 2.3602433268229164 13.175455729166664 2.3602433268229164 M 13.286743164062498 2.2739803059895833 Q 13.320719401041664 2.23288330078125 13.320719401041664 2.16452392578125 Q 13.320719401041664 2.09616455078125 13.281656901041664 2.0465226236979164 Q 13.242594401041664 1.9968806966145831 13.18135579427083 1.9968806966145831 Q 13.120117187499998 1.9968806966145831 13.087158203124998 2.03879150390625 Q 13.054199218749998 2.0807023111979164 13.054199218749998 2.14865478515625 Q 13.054199218749998 2.2166072591145833 13.09285481770833 2.26584228515625 Q 13.131510416666664 2.3150773111979164 13.192138671874998 2.3150773111979164 Q 13.25276692708333 2.3150773111979164 13.286743164062498 2.2739803059895833 M 13.45601399739583 2.33053955078125 Q 13.45296223958333 2.32443603515625 13.45296223958333 2.31528076171875 Q 13.45296223958333 2.30612548828125 13.461100260416664 2.3020564778645833 Q 13.469238281249996 2.2979874674479164 13.47920735677083 2.29758056640625 Q 13.489176432291664 2.2971736653645833 13.497314453124996 2.2912736002604164 Q 13.50545247395833 2.28537353515625 13.50545247395833 2.2723527018229164 L 13.50545247395833 2.0111222330729164 L 13.476969401041664 2.0111222330729164 Q 13.46638997395833 2.0111222330729164 13.459269205729164 2.0035945638020833 Q 13.452148437499996 1.9960668945312499 13.452148437499996 1.9818253580729164 Q 13.452148437499996 1.9675838216145831 13.45906575520833 1.9631079101562499 Q 13.465983072916664 1.9586319986979164 13.48470052083333 1.9586319986979164 L 13.50545247395833 1.9586319986979164 L 13.50545247395833 1.8988175455729164 Q 13.50545247395833 1.8304581705729164 13.546752929687496 1.7934301757812499 Q 13.588053385416664 1.7564021809895831 13.659667968749996 1.7564021809895831 Q 13.718261718749996 1.7564021809895831 13.744303385416664 1.7795955403645831 Q 13.75935872395833 1.7926163736979164 13.75935872395833 1.8137752278645831 Q 13.75935872395833 1.8634171549479164 13.70930989583333 1.8634171549479164 Q 13.665771484374996 1.8634171549479164 13.665771484374996 1.8137752278645831 L 13.665771484374996 1.8080786132812499 Q 13.650309244791664 1.8015681966145831 13.634440104166664 1.8015681966145831 Q 13.564860026041664 1.8015681966145831 13.564860026041664 1.8739965820312499 Q 13.564860026041664 1.9220109049479164 13.582763671874996 1.9586319986979164 L 13.641764322916664 1.9586319986979164 Q 13.671061197916664 1.9586319986979164 13.671061197916664 1.9757218424479164 Q 13.671061197916664 1.9895564778645831 13.66231282552083 1.9997290039062499 Q 13.653564453124996 2.0099015299479164 13.642985026041664 2.0099015299479164 L 13.582763671874996 2.0099015299479164 L 13.582763671874996 2.2723527018229164 Q 13.582763671874996 2.2959529622395833 13.609008789062496 2.2973771158854164 Q 13.635253906249996 2.29880126953125 13.635253906249996 2.31833251953125 Q 13.635253906249996 2.3407120768229164 13.605143229166664 2.3460017903645833 Q 13.583170572916664 2.35007080078125 13.561808268229164 2.35007080078125 Q 13.540445963541664 2.35007080078125 13.53108723958333 2.35007080078125 Q 13.521728515624996 2.35007080078125 13.515014648437496 2.3498673502604164 Q 13.508300781249996 2.3496638997395833 13.496704101562496 2.34885009765625 Q 13.485107421874996 2.3480362955729164 13.479003906249996 2.3460017903645833 Q 13.472900390624996 2.34396728515625 13.465983072916664 2.34030517578125 Q 13.45906575520833 2.33664306640625 13.45601399739583 2.33053955078125 M 14.021402994791664 2.1738826497395833 Q 14.021402994791664 2.2296280924479164 14.03035481770833 2.2526180013020833 Q 14.039306640624998 2.27560791015625 14.050699869791664 2.28537353515625 Q 14.07430013020833 2.3057185872395833 14.129435221354164 2.3057185872395833 Q 14.184570312499998 2.3057185872395833 14.210205078124998 2.27743896484375 Q 14.235839843749998 2.2491593424479164 14.235839843749998 2.18283447265625 L 14.235839843749998 2.0453019205729164 Q 14.235839843749998 2.0151912434895833 14.20613606770833 2.01315673828125 Q 14.182535807291664 2.01193603515625 14.180094401041664 2.0080704752604164 Q 14.177652994791664 2.0042049153645833 14.177652994791664 1.9993221028645831 Q 14.177652994791664 1.9789770507812499 14.201456705729164 1.9683976236979164 Q 14.225260416666664 1.9578181966145831 14.25801595052083 1.9578181966145831 Q 14.290771484374998 1.9578181966145831 14.302368164062498 1.9667700195312499 Q 14.313964843749998 1.9757218424479164 14.313964843749998 2.0090877278645833 L 14.314371744791664 2.26950439453125 Q 14.314371744791664 2.2971736653645833 14.343668619791664 2.2992081705729164 Q 14.364420572916664 2.3004288736979164 14.368896484374998 2.3034806315104164 Q 14.37337239583333 2.3065323893229164 14.37337239583333 2.31772216796875 Q 14.37337239583333 2.3289119466145833 14.35994466145833 2.3382706705729164 Q 14.335937499999998 2.3545467122395833 14.297485351562498 2.3545467122395833 Q 14.259033203124998 2.3545467122395833 14.249877929687498 2.3429500325520833 Q 14.240722656249998 2.3313533528645833 14.240722656249998 2.2894425455729164 Q 14.19148763020833 2.36105712890625 14.09016927083333 2.36105712890625 Q 14.010009765624998 2.36105712890625 13.976440429687498 2.3179256184895833 Q 13.942871093749998 2.2747941080729164 13.942871093749998 2.1848689778645833 L 13.942871093749998 2.0453019205729164 Q 13.942871093749998 2.0151912434895833 13.913981119791664 2.01315673828125 Q 13.88997395833333 2.01193603515625 13.88753255208333 2.0080704752604164 Q 13.88509114583333 2.0042049153645833 13.88509114583333 1.9993221028645831 Q 13.88509114583333 1.9789770507812499 13.908691406249998 1.9683976236979164 Q 13.932291666666664 1.9578181966145831 13.96504720052083 1.9578181966145831 Q 13.997802734374998 1.9578181966145831 14.00960286458333 1.9667700195312499 Q 14.021402994791664 1.9757218424479164 14.021402994791664 2.0090877278645833 L 14.021402994791664 2.1738826497395833 M 14.605712890624998 2.3130428059895833 Q 14.697265624999998 2.3130428059895833 14.697265624999998 2.2568904622395833 Q 14.697265624999998 2.21457275390625 14.614664713541664 2.1905655924479164 Q 14.59920247395833 2.1860896809895833 14.57722981770833 2.1799861653645833 Q 14.536132812499998 2.1689998372395833 14.521891276041664 2.16330322265625 Q 14.486083984374998 2.1494685872395833 14.46126302083333 2.12302001953125 Q 14.436442057291664 2.0965714518229164 14.436442057291664 2.0603572591145833 Q 14.436442057291664 2.0135636393229164 14.480997721354164 1.9826391601562499 Q 14.525553385416664 1.9517146809895831 14.588623046874998 1.9517146809895831 Q 14.650065104166664 1.9517146809895831 14.703776041666664 1.9740942382812499 Q 14.730224609374998 1.9850805664062499 14.746704101562498 2.00461181640625 Q 14.763183593749998 2.02414306640625 14.763183593749998 2.0453019205729164 Q 14.763183593749998 2.0664607747395833 14.74629720052083 2.07907470703125 Q 14.729410807291664 2.0916886393229164 14.711303710937498 2.0916886393229164 Q 14.69319661458333 2.0916886393229164 14.687296549479164 2.08822998046875 Q 14.681396484374998 2.0847713216145833 14.681396484374998 2.0721573893229164 Q 14.681396484374998 1.9936254882812499 14.59798177083333 1.9936254882812499 Q 14.563395182291664 1.9936254882812499 14.537760416666664 2.00888427734375 Q 14.512125651041664 2.02414306640625 14.512125651041664 2.04855712890625 Q 14.512125651041664 2.0868058268229164 14.59187825520833 2.1091853841145833 Q 14.604492187499998 2.1124405924479164 14.62239583333333 2.1171199544270833 Q 14.640299479166664 2.12179931640625 14.65535481770833 2.1264786783854164 Q 14.670410156249998 2.1311580403645833 14.686889648437498 2.1374650065104164 Q 14.703369140624998 2.14377197265625 14.721679687499998 2.1539444986979164 Q 14.739990234374998 2.1641170247395833 14.751383463541664 2.1759171549479164 Q 14.777832031249998 2.2027726236979164 14.777832031249998 2.24081787109375 Q 14.777832031249998 2.2788631184895833 14.752197265624998 2.3065323893229164 Q 14.701334635416664 2.3606502278645833 14.605712890624998 2.3606502278645833 Q 14.543457031249998 2.3606502278645833 14.490966796874998 2.34030517578125 Q 14.464111328124998 2.3297257486979164 14.44783528645833 2.31100830078125 Q 14.431559244791664 2.2922908528645833 14.431559244791664 2.2711319986979164 Q 14.431559244791664 2.24997314453125 14.444986979166664 2.23837646484375 Q 14.458414713541664 2.22677978515625 14.475504557291664 2.22677978515625 Q 14.492594401041664 2.22677978515625 14.50459798177083 2.2373592122395833 Q 14.516601562499998 2.2479386393229164 14.516601562499998 2.2636043294270833 Q 14.516601562499998 2.27927001953125 14.51375325520833 2.2971736653645833 Q 14.556884765624998 2.3130428059895833 14.605712890624998 2.3130428059895833 M 14.876098632812496 2.3370499674479164 Q 14.858805338541664 2.3240291341145833 14.858805338541664 2.3034806315104164 Q 14.858805338541664 2.28293212890625 14.87752278645833 2.2690974934895833 Q 14.896240234374996 2.2552628580729164 14.91536458333333 2.2552628580729164 Q 14.934488932291664 2.2552628580729164 14.95381673177083 2.2678767903645833 Q 14.973144531249996 2.28049072265625 14.973144531249996 2.2979874674479164 Q 14.973144531249996 2.3346085611979164 14.93611653645833 2.3468155924479164 Q 14.926757812499996 2.35007080078125 14.910074869791664 2.35007080078125 Q 14.89339192708333 2.35007080078125 14.876098632812496 2.3370499674479164" fill="#042127" fill-rule="nonzero"></path></g></g><defs><clipPath id="SvgjsClipPath49278"><path d=" M -5.087216128617767 -1.2897396492950635 h 4.6872161286177665 v 4.929550099371377 h -4.6872161286177665 Z"></path></clipPath><clipPath id="SvgjsClipPath492735458fc81-52d0-42a6-b6e8-88413496eb06"><path d=" M -5.087216128617767 -1.2897396492950635 L -0.40000000000000036 -1.2897396492950635 L -0.40000000000000036 3.6398104500763133 L -5.087216128617767 3.6398104500763133 Z"></path></clipPath></defs></svg>